<svg width="385" height="223" viewBox="0 0 385 249" fill="none" xmlns="http://www.w3.org/2000/svg">
    <path d="M165.424 27H4.11853C3.53677 27 3.06079 27.4757 3.06079 28.057V81.1206C3.06079 81.3637 3.14539 81.6068 3.30405 81.7865L29.134 113.202V215.566L1.26262 247.245C0.987606 247.552 0.924106 247.996 1.09334 248.376C1.26258 248.757 1.6434 249 2.05592 249H355.806C356.113 249 356.399 248.873 356.6 248.641L384.736 216.665C384.905 216.475 385 216.221 385 215.967V74.7783C385 74.5352 384.915 74.2921 384.757 74.1018L345.652 27.3805C345.451 27.1374 345.155 27 344.838 27H165.424Z" fill="white" fill-opacity="0.1"/>
    <path d="M205.393 8.2083C205.393 7.5104 204.826 6.94336 204.128 6.94336C203.43 6.94336 202.863 7.5104 202.863 8.2083C202.863 8.90619 203.43 9.47323 204.128 9.47323C204.826 9.47323 205.393 8.90619 205.393 8.2083Z" fill="white"/>
    <path d="M199.641 10.0652C200.314 9.88446 200.719 9.18657 200.538 8.5136C200.358 7.84062 199.66 7.4356 198.987 7.6163C198.314 7.79701 197.909 8.4949 198.089 9.16787C198.27 9.84084 198.968 10.2459 199.641 10.0652Z" fill="white"/>
    <path d="M195.466 11.7977C196.07 11.4487 196.282 10.6698 195.927 10.0654C195.578 9.46097 194.805 9.24911 194.195 9.60429C193.59 9.95323 193.379 10.7259 193.734 11.3366C194.083 11.941 194.862 12.1529 195.466 11.7977Z" fill="white"/>
    <path d="M190.98 14.9146C191.678 14.9146 192.245 14.3483 192.245 13.6497C192.245 12.9511 191.678 12.3848 190.98 12.3848C190.281 12.3848 189.715 12.9511 189.715 13.6497C189.715 14.3483 190.281 14.9146 190.98 14.9146Z" fill="white"/>
    <path d="M188.662 16.4033C188.057 16.0543 187.278 16.26 186.929 16.8644C186.58 17.4688 186.786 18.2477 187.39 18.5967C187.995 18.9456 188.774 18.74 189.123 18.1356C189.472 17.5311 189.266 16.7522 188.662 16.4033Z" fill="white"/>
    <path d="M184.948 21.6556C184.767 22.3348 185.166 23.0265 185.845 23.2072C186.524 23.3879 187.216 22.9891 187.397 22.3099C187.577 21.6307 187.179 20.939 186.499 20.7583C185.82 20.5776 185.128 20.9764 184.948 21.6556Z" fill="white"/>
    <path d="M184.443 26.7904C184.443 27.4447 184.973 27.9743 185.627 27.9743C186.281 27.9743 186.811 27.4447 186.811 26.7904C186.811 26.1361 186.281 25.6064 185.627 25.6064C184.973 25.6064 184.443 26.1361 184.443 26.7904Z" fill="white"/>
    <path d="M187.39 31.2707C187.21 30.5915 186.512 30.1927 185.839 30.3734C185.166 30.5541 184.761 31.252 184.942 31.925C185.122 32.6042 185.82 33.003 186.493 32.8223C187.166 32.6416 187.571 31.9437 187.39 31.2707Z" fill="white"/>
    <path d="M188.655 37.1776C189.26 36.8286 189.472 36.0559 189.117 35.4453C188.768 34.8409 187.995 34.629 187.384 34.9842C186.78 35.3331 186.568 36.1058 186.923 36.7164C187.272 37.3209 188.051 37.5327 188.655 37.1776Z" fill="white"/>
    <path d="M214.515 11.3377C214.864 10.7333 214.658 9.95437 214.054 9.60542C213.449 9.25647 212.67 9.46211 212.321 10.0665C211.972 10.671 212.178 11.4499 212.782 11.7988C213.387 12.1478 214.166 11.9421 214.515 11.3377Z" fill="white"/>
    <path d="M210.159 9.17512C210.34 8.50215 209.941 7.80425 209.262 7.62355C208.589 7.44284 207.891 7.84164 207.71 8.52084C207.53 9.19381 207.929 9.89171 208.608 10.0724C209.287 10.2531 209.979 9.85432 210.159 9.17512Z" fill="white"/>
    <path d="M226.622 32.2183C226.56 32.2058 226.504 32.2432 226.485 32.2993C223.955 42.6182 214.758 49.8277 204.115 49.8277C198.22 49.8277 192.837 47.5969 188.761 43.9454C188.892 43.746 188.973 43.503 188.973 43.2475C188.973 42.9484 188.867 42.6805 188.693 42.4624L193.584 37.5709C196.258 40.3376 200.003 42.0636 204.153 42.0636C208.078 42.0636 211.642 40.5245 214.272 38.0133L215.138 38.8795C212.209 41.5589 208.321 43.1603 204.109 43.1603V44.5062C208.689 44.5062 212.914 42.7615 216.085 39.8328L216.634 40.3812C213.331 43.4719 208.907 45.3163 204.109 45.3163V49.3479C214.253 49.3479 223.046 42.5933 225.681 32.8539L221.762 31.9067C220.977 34.7357 219.556 37.2469 217.68 39.3156L217.138 38.7735C218.933 36.8107 220.304 34.4241 221.076 31.7385L219.768 31.4207C219.058 33.8571 217.818 36.0256 216.191 37.8201L215.3 36.9291C216.821 35.1594 217.923 33.0283 218.466 30.6792L222.485 31.5391C223.295 31.7136 224.049 31.0967 224.049 30.2741V23.3388C224.049 22.5163 223.289 21.8994 222.485 22.0739L218.466 22.9338C217.88 20.3852 216.634 18.0983 214.914 16.2477L219.699 11.4621C219.917 11.6366 220.185 11.7425 220.485 11.7425C220.784 11.7425 221.07 11.6303 221.288 11.4496C223.743 14.1976 225.569 17.5687 226.485 21.351C226.498 21.4134 226.56 21.4507 226.622 21.432C226.685 21.4196 226.722 21.3573 226.703 21.295C225.775 17.469 223.93 14.0667 221.444 11.2876C221.631 11.0695 221.749 10.7829 221.749 10.4713C221.749 9.77344 221.182 9.2064 220.485 9.2064C220.173 9.2064 219.893 9.32479 219.674 9.5055C215.518 5.773 210.041 3.55469 204.109 3.55469C191.653 3.55469 181.458 13.3938 180.879 25.7129C180.904 25.7129 180.935 25.7067 180.96 25.7067C181.01 25.7067 181.053 25.7129 181.097 25.7191C181.67 13.5246 191.765 3.77901 204.103 3.77901C209.972 3.77901 215.394 5.9724 219.506 9.66751C219.326 9.8856 219.207 10.166 219.207 10.4713C219.207 10.7081 219.276 10.9324 219.394 11.1194L214.596 15.9174C211.929 13.2193 208.234 11.5431 204.14 11.5431C196.021 11.5431 189.441 18.1233 189.441 26.2425H193.946C193.946 20.622 198.519 16.0483 204.14 16.0483C206.981 16.0483 209.555 17.2197 211.406 19.1016L209.817 20.6905C208.327 19.301 206.333 18.4473 204.14 18.4473C199.535 18.4473 195.79 22.1923 195.79 26.7971C195.79 28.9905 196.644 30.9845 198.033 32.4738L196.457 34.0503C194.893 32.2557 193.946 29.919 193.946 27.3642H189.441C189.441 31.1714 190.886 34.636 193.26 37.2469L188.344 42.1633C188.151 42.0511 187.933 41.9764 187.696 41.9764C187.434 41.9764 187.191 42.0574 186.992 42.1882C183.546 38.356 181.359 33.3711 181.103 27.8876C181.06 27.8876 181.01 27.9 180.966 27.9C180.935 27.9 180.91 27.9 180.885 27.8938C181.147 33.4271 183.346 38.462 186.823 42.3315C186.587 42.5621 186.431 42.8861 186.431 43.2413C186.431 43.9392 186.998 44.5062 187.696 44.5062C188.057 44.5062 188.381 44.3567 188.612 44.1137C192.731 47.8026 198.158 50.0458 204.109 50.0458C214.852 50.0458 224.142 42.7677 226.697 32.3491C226.71 32.2868 226.672 32.2307 226.616 32.2121L226.622 32.2183ZM205.461 48.7435H204.788V46.0017H205.461V48.7435ZM206.701 48.6001L206.464 45.8646L207.131 45.8086L207.368 48.5441L206.701 48.6001ZM208.589 48.2948L208.116 45.5905L208.776 45.4721L209.25 48.1764L208.589 48.2948ZM210.446 47.8212L209.736 45.173L210.384 44.9985L211.094 47.6468L210.446 47.8212ZM212.253 47.1919L211.312 44.6122L211.942 44.3816L212.882 46.9613L212.253 47.1919ZM213.998 46.4068L212.839 43.9205L213.449 43.6339L214.608 46.1201L213.998 46.4068ZM215.668 45.4721L214.297 43.098L214.876 42.7615L216.247 45.1356L215.668 45.4721ZM217.251 44.3941L215.674 42.1446L216.222 41.7583L217.799 44.0077L217.251 44.3941ZM222.447 32.5859L225.083 33.3461L224.896 33.9942L222.26 33.234L222.447 32.5859ZM222.042 33.882L224.578 34.9289L224.323 35.552L221.787 34.5051L222.042 33.882ZM221.382 35.3588L223.831 36.5988L223.525 37.197L221.076 35.957L221.382 35.3588ZM220.609 36.7671L222.859 38.3436L222.472 38.8919L220.223 37.3154L220.609 36.7671ZM219.681 38.1192L221.781 39.8827L221.351 40.3999L219.251 38.6364L219.681 38.1192ZM218.634 39.434L220.572 41.3719L220.098 41.8455L218.553 40.3002L218.16 39.9076L218.216 39.8515L218.634 39.434ZM217.481 40.6491L218.004 41.2722L219.244 42.749L218.727 43.179L216.964 41.0791L217.163 40.9108L217.481 40.6429V40.6491ZM221.058 24.5913C222.279 24.5913 223.27 25.582 223.27 26.8034C223.27 28.0247 222.279 29.0154 221.058 29.0154C219.836 29.0154 218.846 28.0247 218.846 26.8034C218.846 25.582 219.836 24.5913 221.058 24.5913ZM204.115 15.1074C203.417 15.1074 202.85 14.5403 202.85 13.8424C202.85 13.1445 203.417 12.5775 204.115 12.5775C204.813 12.5775 205.38 13.1445 205.38 13.8424C205.38 14.5403 204.813 15.1074 204.115 15.1074ZM204.115 41.0604C203.417 41.0604 202.85 40.4933 202.85 39.7954C202.85 39.0975 203.417 38.5305 204.115 38.5305C204.813 38.5305 205.38 39.0975 205.38 39.7954C205.38 40.4933 204.813 41.0604 204.115 41.0604ZM211.723 19.4318C212.839 20.6718 213.655 22.1923 214.06 23.8685L212.11 24.2859C211.717 23.0397 211.032 21.9243 210.147 21.0083L211.723 19.4318ZM196.245 26.8034C196.245 22.4477 199.791 18.9022 204.146 18.9022C207.654 18.9022 210.639 21.2077 211.667 24.3794L209.237 24.8966C208.676 25.015 208.265 25.4948 208.221 26.0556H215.655C216.067 26.0556 216.403 26.3921 216.403 26.8034C216.403 27.2146 216.067 27.5511 215.655 27.5511H208.221C208.265 28.1181 208.676 28.5917 209.237 28.7101L211.667 29.2273C210.639 32.399 207.661 34.7045 204.146 34.7045C199.791 34.7045 196.245 31.159 196.245 26.8034ZM198.351 32.804C199.853 34.2559 201.897 35.1594 204.146 35.1594C207.873 35.1594 211.038 32.7043 212.11 29.327L214.06 29.7445C212.988 34.2247 208.951 37.5647 204.153 37.5647C201.249 37.5647 198.632 36.3433 196.775 34.393L198.357 32.8102L198.351 32.804Z" fill="white"/>
    <path d="M227.264 24.5781C226.043 24.5781 225.052 25.5689 225.052 26.7902C225.052 28.0115 226.043 29.0023 227.264 29.0023C228.485 29.0023 229.476 28.0115 229.476 26.7902C229.476 25.5689 228.485 24.5781 227.264 24.5781ZM227.264 27.8994C226.653 27.8994 226.155 27.4009 226.155 26.7902C226.155 26.1795 226.653 25.6811 227.264 25.6811C227.875 25.6811 228.373 26.1733 228.373 26.7902C228.373 27.4071 227.875 27.8994 227.264 27.8994Z" fill="white"/>
    <path d="M221.089 27.8997C221.7 27.8997 222.198 27.4012 222.198 26.7906C222.198 26.1799 221.7 25.6814 221.089 25.6814C220.478 25.6814 219.98 26.1737 219.98 26.7906C219.98 27.4075 220.478 27.8997 221.089 27.8997Z" fill="white"/>
    <path d="M204.159 29.0091C205.118 29.0091 205.929 28.3922 206.234 27.5448H204.932C204.732 27.7629 204.439 27.9062 204.121 27.9062C203.511 27.9062 203.012 27.4077 203.012 26.797C203.012 26.1864 203.511 25.6879 204.121 25.6879C204.445 25.6879 204.732 25.825 204.932 26.0493H206.234C205.929 25.1956 205.118 24.585 204.159 24.585C202.938 24.585 201.947 25.5757 201.947 26.797C201.947 28.0184 202.938 29.0091 204.159 29.0091Z" fill="white"/>
    <path d="M230.174 28.1491C230.081 28.1491 230.006 28.2176 230 28.3111C230 28.4045 230.068 28.4793 230.155 28.4855H230.162C230.249 28.4855 230.33 28.4108 230.33 28.3235C230.33 28.2301 230.261 28.1491 230.168 28.1428L230.174 28.1491Z" fill="white"/>
    <path d="M186.381 45.9017C186.319 45.9702 186.325 46.0762 186.387 46.1385C186.418 46.1696 186.462 46.1821 186.499 46.1821C186.543 46.1821 186.587 46.1634 186.624 46.126C186.686 46.0575 186.68 45.9515 186.618 45.8892C186.549 45.8269 186.443 45.8331 186.381 45.8955V45.9017Z" fill="white"/>
    <path d="M184.524 43.9697C184.456 44.032 184.449 44.1379 184.506 44.2065C184.543 44.2439 184.587 44.2626 184.63 44.2626C184.668 44.2626 184.711 44.2501 184.742 44.2252C184.817 44.1629 184.817 44.0569 184.761 43.9822C184.699 43.9136 184.593 43.9074 184.524 43.9697Z" fill="white"/>
    <path d="M182.879 41.8577C182.804 41.9138 182.786 42.0197 182.842 42.0945C182.873 42.1381 182.929 42.163 182.979 42.163C183.016 42.163 183.054 42.1568 183.079 42.1319C183.153 42.0758 183.172 41.9761 183.122 41.9013C183.066 41.8265 182.96 41.8078 182.892 41.8577H182.879Z" fill="white"/>
    <path d="M181.452 39.5964C181.371 39.6401 181.34 39.746 181.39 39.827C181.421 39.8831 181.477 39.9142 181.533 39.9142C181.564 39.9142 181.589 39.9142 181.62 39.8893C181.701 39.8457 181.726 39.7398 181.683 39.6587C181.639 39.5777 181.533 39.5528 181.452 39.5964Z" fill="white"/>
    <path d="M229.912 30.8159C229.825 30.8035 229.738 30.8658 229.719 30.953C229.707 31.0465 229.769 31.1337 229.862 31.1462C229.862 31.1462 229.875 31.1462 229.887 31.1462C229.968 31.1462 230.043 31.0839 230.056 31.0029C230.074 30.9094 230.012 30.8222 229.918 30.8097L229.912 30.8159Z" fill="white"/>
    <path d="M213.898 50.8933C213.811 50.9307 213.773 51.0242 213.811 51.1114C213.836 51.1737 213.898 51.2174 213.967 51.2174C213.985 51.2174 214.004 51.2173 214.029 51.2049C214.116 51.1737 214.154 51.074 214.116 50.9868C214.085 50.8996 213.985 50.8559 213.904 50.8933H213.898Z" fill="white"/>
    <path d="M218.584 48.4007C218.509 48.4568 218.49 48.5565 218.54 48.6312C218.577 48.6811 218.627 48.706 218.677 48.706C218.708 48.706 218.746 48.6998 218.771 48.6749C218.852 48.625 218.87 48.5191 218.82 48.4443C218.764 48.3695 218.665 48.3446 218.584 48.4007Z" fill="white"/>
    <path d="M188.425 47.6343C188.369 47.7091 188.387 47.815 188.456 47.8711C188.487 47.896 188.524 47.9022 188.562 47.9022C188.612 47.9022 188.662 47.8773 188.699 47.8337C188.755 47.7589 188.736 47.653 188.662 47.6031C188.587 47.547 188.481 47.5657 188.431 47.6343H188.425Z" fill="white"/>
    <path d="M216.303 49.765C216.222 49.8086 216.191 49.9146 216.235 49.9956C216.266 50.0516 216.322 50.0828 216.384 50.0828C216.409 50.0828 216.44 50.0828 216.465 50.0641C216.546 50.0205 216.577 49.9146 216.534 49.8335C216.49 49.7525 216.391 49.7214 216.303 49.7588V49.765Z" fill="white"/>
    <path d="M220.721 46.8054C220.647 46.8615 220.634 46.9736 220.696 47.0422C220.728 47.0796 220.777 47.0983 220.821 47.0983C220.865 47.0983 220.902 47.0858 220.933 47.0609C221.008 46.9986 221.014 46.8926 220.952 46.8241C220.896 46.7556 220.784 46.7431 220.721 46.7992V46.8054Z" fill="white"/>
    <path d="M226.211 40.792C226.136 40.7359 226.03 40.7608 225.98 40.8418C225.924 40.9166 225.955 41.0225 226.03 41.0724C226.055 41.0911 226.086 41.0973 226.117 41.0973C226.174 41.0973 226.23 41.0724 226.261 41.0163C226.311 40.9415 226.286 40.8356 226.205 40.7857L226.211 40.792Z" fill="white"/>
    <path d="M222.672 44.9977C222.603 45.0662 222.609 45.1722 222.672 45.2345C222.709 45.2656 222.746 45.2843 222.79 45.2843C222.827 45.2843 222.877 45.2656 222.908 45.2345C222.977 45.1659 222.977 45.06 222.908 44.9977C222.84 44.9292 222.734 44.9292 222.672 44.9977Z" fill="white"/>
    <path d="M224.429 43.0046C224.373 43.0731 224.385 43.1853 224.46 43.2414C224.485 43.2663 224.529 43.2788 224.566 43.2788C224.616 43.2788 224.666 43.2538 224.697 43.2164C224.753 43.1417 224.74 43.0357 224.672 42.9797C224.597 42.9236 224.491 42.936 224.435 43.0046H224.429Z" fill="white"/>
    <path d="M211.387 51.7658C211.3 51.7907 211.25 51.8842 211.275 51.9777C211.3 52.0524 211.362 52.0961 211.437 52.0961C211.449 52.0961 211.468 52.0961 211.48 52.0898C211.568 52.0649 211.624 51.9714 211.599 51.8842C211.574 51.797 211.48 51.7409 211.393 51.7658H211.387Z" fill="white"/>
    <path d="M193.21 50.3388C193.123 50.3015 193.03 50.3388 192.986 50.4261C192.949 50.5071 192.986 50.6068 193.067 50.6442C193.092 50.6566 193.117 50.6629 193.142 50.6629C193.204 50.6629 193.26 50.6255 193.291 50.5632C193.329 50.4759 193.291 50.3825 193.21 50.3388Z" fill="white"/>
    <path d="M208.788 52.3691C208.701 52.3878 208.639 52.4751 208.651 52.5685C208.663 52.6495 208.738 52.7056 208.819 52.7056C208.825 52.7056 208.838 52.7056 208.85 52.7056C208.938 52.6932 209 52.5997 208.987 52.5125C208.969 52.419 208.882 52.3629 208.788 52.3754V52.3691Z" fill="white"/>
    <path d="M190.861 49.0862C190.78 49.0364 190.68 49.0613 190.631 49.1423C190.581 49.2171 190.606 49.323 190.687 49.3728C190.712 49.3915 190.743 49.3978 190.774 49.3978C190.83 49.3978 190.886 49.3728 190.917 49.3168C190.967 49.242 190.942 49.1361 190.861 49.0862Z" fill="white"/>
    <path d="M195.678 51.3476C195.591 51.3165 195.497 51.3601 195.466 51.4536C195.435 51.5408 195.479 51.6343 195.572 51.6716C195.591 51.6716 195.609 51.6779 195.628 51.6779C195.703 51.6779 195.765 51.6343 195.79 51.5657C195.815 51.4785 195.771 51.3788 195.684 51.3539L195.678 51.3476Z" fill="white"/>
    <path d="M203.492 52.7746C203.398 52.7746 203.324 52.8494 203.324 52.9366C203.324 53.0301 203.392 53.1049 203.486 53.1111C203.573 53.1111 203.654 53.0363 203.654 52.9428C203.654 52.8556 203.579 52.7746 203.486 52.7746H203.492Z" fill="white"/>
    <path d="M198.227 52.0892C198.14 52.0643 198.046 52.1204 198.028 52.2139C198.003 52.3011 198.065 52.3946 198.152 52.4133C198.165 52.4133 198.177 52.4133 198.19 52.4133C198.264 52.4133 198.333 52.3572 198.352 52.2824C198.376 52.1952 198.32 52.1017 198.227 52.083V52.0892Z" fill="white"/>
    <path d="M200.844 52.5629C200.756 52.5504 200.669 52.619 200.657 52.7062C200.65 52.7997 200.713 52.8869 200.806 52.8931C200.806 52.8931 200.819 52.8931 200.825 52.8931C200.912 52.8931 200.981 52.8308 200.993 52.7436C200.999 52.6501 200.937 52.5691 200.844 52.5566V52.5629Z" fill="white"/>
    <path d="M206.159 52.7068C206.066 52.7131 205.991 52.7941 206.003 52.8875C206.003 52.9748 206.084 53.0371 206.172 53.0371H206.184C206.277 53.0308 206.346 52.9498 206.34 52.8564C206.334 52.7629 206.253 52.6944 206.159 52.7006V52.7068Z" fill="white"/>
    <path d="M216.397 4.13999C216.397 4.13999 216.453 4.15868 216.471 4.15868C216.534 4.15868 216.59 4.12752 216.621 4.07144C216.665 3.98421 216.633 3.88451 216.552 3.84089C216.471 3.79727 216.372 3.82843 216.328 3.90943C216.285 3.99044 216.316 4.09014 216.397 4.13999Z" fill="white"/>
    <path d="M211.48 2.1213C211.48 2.1213 211.512 2.12753 211.524 2.12753C211.599 2.12753 211.661 2.07768 211.686 2.00914C211.711 1.9219 211.661 1.82843 211.574 1.79728C211.487 1.77235 211.393 1.8222 211.362 1.91567C211.337 2.00291 211.387 2.09638 211.48 2.1213Z" fill="white"/>
    <path d="M213.992 3.0061C213.992 3.0061 214.035 3.01233 214.054 3.01233C214.122 3.01233 214.185 2.97494 214.21 2.9064C214.247 2.81916 214.21 2.7257 214.122 2.68831C214.035 2.65092 213.936 2.69454 213.904 2.78178C213.867 2.86901 213.904 2.96248 213.992 2.99987V3.0061Z" fill="white"/>
    <path d="M180.268 37.1905C180.181 37.2279 180.144 37.3276 180.181 37.4148C180.206 37.4709 180.268 37.5145 180.33 37.5145C180.355 37.5145 180.374 37.5145 180.399 37.5021C180.486 37.4647 180.524 37.365 180.486 37.2777C180.449 37.1905 180.349 37.1593 180.268 37.1905Z" fill="white"/>
    <path d="M208.888 1.51049H208.919C209 1.51049 209.069 1.45441 209.088 1.3734C209.106 1.27993 209.044 1.19269 208.951 1.174C208.863 1.15531 208.77 1.21762 208.751 1.31109C208.739 1.39833 208.795 1.49179 208.888 1.51049Z" fill="white"/>
    <path d="M200.925 1.2868C200.925 1.2868 200.937 1.2868 200.943 1.2868C201.037 1.28057 201.099 1.19333 201.093 1.09986C201.08 1.01263 200.999 0.944083 200.906 0.956546C200.812 0.962777 200.75 1.05001 200.756 1.14348C200.769 1.23072 200.844 1.29303 200.925 1.29303V1.2868Z" fill="white"/>
    <path d="M198.283 1.7534C198.283 1.7534 198.308 1.7534 198.32 1.7534C198.407 1.73471 198.47 1.64747 198.445 1.554C198.42 1.46676 198.333 1.41068 198.245 1.42938C198.158 1.4543 198.096 1.54154 198.121 1.62878C198.139 1.70355 198.208 1.75963 198.283 1.75963V1.7534Z" fill="white"/>
    <path d="M220.896 7.16152C220.945 7.16152 220.995 7.1366 221.026 7.09921C221.083 7.02444 221.076 6.92474 221.008 6.86866C220.933 6.80635 220.827 6.81258 220.771 6.88735C220.709 6.96213 220.715 7.06806 220.79 7.12414C220.821 7.14906 220.864 7.16152 220.896 7.16152Z" fill="white"/>
    <path d="M206.252 1.16211C206.252 1.16211 206.258 1.16211 206.265 1.16211C206.352 1.16211 206.427 1.09357 206.433 1.00633C206.439 0.912861 206.37 0.831855 206.283 0.825624C206.19 0.819393 206.109 0.881705 206.103 0.975173C206.103 1.06864 206.165 1.14965 206.258 1.15588L206.252 1.16211Z" fill="white"/>
    <path d="M203.592 1.08682C203.685 1.08682 203.76 1.00582 203.76 0.912349C203.76 0.825112 203.679 0.744106 203.592 0.750338C203.498 0.750338 203.423 0.825112 203.423 0.91858C203.423 1.01205 203.498 1.08682 203.592 1.08682Z" fill="white"/>
    <path d="M227.52 38.4491C227.432 38.4117 227.339 38.4491 227.289 38.5239C227.252 38.6049 227.283 38.7046 227.364 38.7482C227.389 38.7607 227.414 38.7669 227.439 38.7669C227.495 38.7669 227.557 38.7358 227.588 38.6797C227.632 38.5924 227.594 38.499 227.513 38.4491H227.52Z" fill="white"/>
    <path d="M228.56 17.9738C228.56 17.9738 228.598 17.9738 228.616 17.9613C228.704 17.9302 228.747 17.8305 228.716 17.7494C228.685 17.6622 228.585 17.6186 228.498 17.6497C228.411 17.6809 228.367 17.7806 228.398 17.8678C228.423 17.9364 228.485 17.98 228.554 17.98L228.56 17.9738Z" fill="white"/>
    <path d="M229.906 23.1458C229.906 23.1458 229.925 23.1458 229.931 23.1458C230.018 23.1334 230.081 23.0462 230.068 22.9527C230.056 22.8654 229.968 22.7969 229.875 22.8156C229.788 22.8281 229.725 22.9153 229.738 23.0088C229.75 23.0898 229.825 23.1521 229.906 23.1521V23.1458Z" fill="white"/>
    <path d="M230.006 25.6504C230.006 25.7439 230.08 25.8124 230.174 25.8124C230.267 25.8124 230.342 25.7252 230.336 25.638C230.336 25.5445 230.249 25.4697 230.161 25.4759C230.068 25.4759 229.993 25.5632 229.999 25.6504H230.006Z" fill="white"/>
    <path d="M226.174 13.1819C226.205 13.1819 226.236 13.1757 226.261 13.157C226.342 13.1072 226.367 13.0075 226.317 12.9265C226.267 12.8517 226.161 12.8268 226.087 12.8766C226.012 12.9265 225.987 13.0262 226.03 13.1072C226.062 13.157 226.118 13.1819 226.174 13.1819Z" fill="white"/>
    <path d="M227.488 15.512C227.488 15.512 227.538 15.512 227.563 15.4995C227.65 15.4559 227.682 15.3562 227.638 15.269C227.601 15.188 227.501 15.1506 227.414 15.1942C227.326 15.2378 227.295 15.3313 227.339 15.4185C227.37 15.4746 227.426 15.5058 227.488 15.5058V15.512Z" fill="white"/>
    <path d="M224.622 10.994C224.659 10.994 224.697 10.9878 224.728 10.9567C224.797 10.9006 224.815 10.7947 224.753 10.7261C224.697 10.6513 224.591 10.6389 224.516 10.7012C224.448 10.7573 224.429 10.8632 224.491 10.9317C224.522 10.9754 224.572 10.994 224.622 10.994Z" fill="white"/>
    <path d="M222.74 8.93196C222.771 8.96312 222.815 8.98181 222.858 8.98181C222.896 8.98181 222.946 8.96312 222.977 8.93196C223.045 8.86965 223.045 8.76372 222.977 8.69518C222.908 8.62663 222.809 8.62663 222.74 8.69518C222.671 8.76372 222.671 8.86965 222.74 8.93196Z" fill="white"/>
    <path d="M228.585 35.994C228.498 35.9566 228.398 36.0002 228.367 36.0874C228.336 36.1747 228.373 36.2744 228.466 36.3055C228.485 36.3118 228.504 36.3118 228.523 36.3118C228.591 36.3118 228.66 36.2681 228.678 36.2058C228.716 36.1186 228.672 36.0251 228.585 35.9877V35.994Z" fill="white"/>
    <path d="M218.671 5.51782C218.671 5.51782 218.727 5.54897 218.765 5.54897C218.821 5.54897 218.871 5.52405 218.902 5.4742C218.952 5.39942 218.933 5.29349 218.858 5.24364C218.777 5.19379 218.678 5.21249 218.628 5.28726C218.572 5.36204 218.597 5.46797 218.671 5.51782Z" fill="white"/>
    <path d="M178.287 29.4321C178.193 29.4384 178.125 29.5256 178.137 29.6128C178.143 29.7001 178.218 29.7624 178.305 29.7624H178.324C178.418 29.7562 178.486 29.6751 178.474 29.5817C178.461 29.4882 178.38 29.4197 178.293 29.4321H178.287Z" fill="white"/>
    <path d="M178.337 23.9926C178.243 23.9801 178.156 24.0489 178.15 24.1426C178.143 24.2364 178.206 24.3176 178.3 24.3239C178.3 24.3239 178.306 24.3239 178.312 24.3239C178.4 24.3239 178.475 24.2551 178.481 24.1739C178.487 24.0864 178.425 23.9989 178.331 23.9926H178.337Z" fill="white"/>
    <path d="M178.336 26.9271C178.336 26.9271 178.336 26.8897 178.336 26.8773C178.336 26.8586 178.336 26.8461 178.336 26.8274C178.336 26.734 178.262 26.6592 178.168 26.6592C178.075 26.6592 178 26.734 178 26.8274C178 26.8523 178 26.8648 178.006 26.8835C178.006 26.9022 178.006 26.9147 178.006 26.9334C178.006 27.0268 178.081 27.1016 178.174 27.1016C178.268 27.1016 178.343 27.0268 178.343 26.9334L178.336 26.9271Z" fill="white"/>
    <path d="M180.443 16.2722C180.356 16.2349 180.262 16.2722 180.219 16.3595C180.181 16.4467 180.219 16.5402 180.306 16.5838C180.324 16.59 180.349 16.5963 180.374 16.5963C180.437 16.5963 180.499 16.5589 180.524 16.4903C180.561 16.4093 180.524 16.3096 180.437 16.2722H180.443Z" fill="white"/>
    <path d="M179.34 34.6793C179.252 34.7105 179.202 34.8039 179.227 34.8912C179.252 34.9659 179.315 35.0096 179.389 35.0096C179.408 35.0096 179.427 35.0096 179.445 35.0033C179.533 34.9784 179.583 34.8849 179.551 34.7915C179.52 34.7042 179.433 34.6544 179.34 34.6793Z" fill="white"/>
    <path d="M179.471 18.7648C179.384 18.7398 179.29 18.7835 179.259 18.871C179.234 18.9585 179.284 19.0523 179.365 19.0835C179.384 19.0898 179.403 19.0898 179.421 19.0898C179.496 19.0898 179.559 19.046 179.578 18.971C179.603 18.8835 179.553 18.7898 179.465 18.7585L179.471 18.7648Z" fill="white"/>
    <path d="M181.502 14.1782C181.502 14.1782 181.558 14.2031 181.583 14.2031C181.639 14.2031 181.701 14.172 181.732 14.1159C181.776 14.0349 181.751 13.9352 181.67 13.8853C181.589 13.8355 181.489 13.8666 181.44 13.9476C181.39 14.0224 181.421 14.1284 181.502 14.1782Z" fill="white"/>
    <path d="M178.679 32.0809C178.586 32.1059 178.53 32.1931 178.548 32.2803C178.561 32.3614 178.636 32.4174 178.71 32.4174C178.723 32.4174 178.735 32.4174 178.748 32.4174C178.835 32.3987 178.897 32.3115 178.879 32.218C178.86 32.1246 178.773 32.0685 178.679 32.0809Z" fill="white"/>
    <path d="M178.766 21.3443C178.673 21.3256 178.586 21.3817 178.567 21.4752C178.548 21.5687 178.604 21.6559 178.698 21.6746H178.735C178.81 21.6746 178.885 21.6185 178.903 21.5437C178.922 21.4503 178.866 21.363 178.773 21.3443H178.766Z" fill="white"/>
    <path d="M195.709 2.48862C195.709 2.48862 195.746 2.48862 195.765 2.48239C195.852 2.45123 195.902 2.35777 195.871 2.27053C195.84 2.18329 195.74 2.13344 195.659 2.1646C195.572 2.19575 195.522 2.28922 195.553 2.38269C195.578 2.45123 195.641 2.49485 195.709 2.49485V2.48862Z" fill="white"/>
    <path d="M190.861 4.74445C190.861 4.74445 190.917 4.74445 190.948 4.71953C191.029 4.66968 191.054 4.56998 191.005 4.48897C190.955 4.40797 190.855 4.38304 190.774 4.43289C190.693 4.47651 190.668 4.58244 190.712 4.66345C190.743 4.71953 190.799 4.74445 190.861 4.74445Z" fill="white"/>
    <path d="M188.637 6.23368C188.674 6.23368 188.712 6.22121 188.737 6.19629C188.811 6.14021 188.824 6.04051 188.768 5.96573C188.712 5.89096 188.606 5.8785 188.537 5.92835C188.462 5.98443 188.45 6.09036 188.5 6.16513C188.531 6.20875 188.587 6.23368 188.637 6.23368Z" fill="white"/>
    <path d="M229.383 33.44C229.295 33.4151 229.202 33.4649 229.183 33.5584C229.158 33.6456 229.208 33.7391 229.302 33.764C229.314 33.764 229.333 33.7702 229.345 33.7702C229.414 33.7702 229.488 33.7142 229.507 33.6456C229.532 33.5521 229.476 33.4649 229.389 33.44H229.383Z" fill="white"/>
    <path d="M183.029 11.948C183.085 11.948 183.135 11.9231 183.166 11.8794C183.222 11.8047 183.209 11.6987 183.128 11.6489C183.054 11.5928 182.948 11.6115 182.898 11.6863C182.842 11.761 182.86 11.867 182.935 11.9168C182.966 11.9417 182.998 11.948 183.035 11.948H183.029Z" fill="white"/>
    <path d="M193.229 3.49287C193.229 3.49287 193.279 3.49287 193.304 3.47418C193.391 3.43679 193.422 3.33709 193.385 3.24985C193.341 3.16885 193.248 3.13146 193.161 3.16885C193.073 3.20623 193.042 3.30593 193.08 3.39317C193.104 3.45548 193.167 3.49287 193.229 3.49287Z" fill="white"/>
    <path d="M186.574 7.9405C186.612 7.9405 186.656 7.92804 186.693 7.90312C186.761 7.8408 186.768 7.73487 186.699 7.6601C186.637 7.59155 186.531 7.58532 186.462 7.65387C186.394 7.71618 186.388 7.82211 186.456 7.89065C186.487 7.92804 186.531 7.94673 186.574 7.94673V7.9405Z" fill="white"/>
    <path d="M184.698 9.85433C184.742 9.85433 184.786 9.83563 184.823 9.79825C184.885 9.7297 184.879 9.62377 184.811 9.56146C184.736 9.50538 184.63 9.50538 184.574 9.58015C184.512 9.6487 184.518 9.75463 184.586 9.81694C184.617 9.84186 184.661 9.85433 184.698 9.85433Z" fill="white"/>
    <path d="M229.326 20.1925C229.239 20.2174 229.183 20.3046 229.208 20.3919C229.233 20.4666 229.295 20.5165 229.37 20.5165C229.383 20.5165 229.401 20.5165 229.414 20.5165C229.501 20.4916 229.557 20.3981 229.532 20.3109C229.507 20.2236 229.414 20.1675 229.326 20.1925Z" fill="white"/>
    <path d="M384.745 73.314L345.539 26.3822C345.338 26.138 345.041 26 344.722 26H254.506V28.1236H344.235L382.879 74.3864V215.436L355.253 246.898H3.40232L30.0632 216.541C30.2328 216.35 30.3283 216.095 30.3283 215.84V112.229C30.3283 111.985 30.2435 111.741 30.0844 111.56L4.18714 80.0033V28.1236L154.5 28.1236V26L3.12665 26C2.54338 26 2.06616 26.4778 2.06616 27.0618V80.3644C2.06616 80.6086 2.15097 80.8528 2.31005 81.0333L28.2073 112.59V215.415L0.263302 247.237C-0.0124261 247.545 -0.076092 247.991 0.093587 248.374C0.263266 248.756 0.64508 249 1.05867 249H355.73C356.038 249 356.324 248.873 356.526 248.639L384.735 216.519C384.905 216.328 385 216.073 385 215.819V73.9935C385 73.7493 384.915 73.5051 384.756 73.314H384.745Z" fill="white"/>
</svg>
