<svg width="387" height="222" viewBox="0 0 389 249" fill="none" xmlns="http://www.w3.org/2000/svg">
    <path d="M149.394 27C149.088 27 148.781 27.1374 148.581 27.3805L138.116 39.8313H119.257L107.019 27.3171C106.818 27.1163 106.543 27 106.269 27H48.0436C47.4628 27 46.9877 27.4756 46.9877 28.0569V80.513C46.9877 81.0943 47.4628 81.5699 48.0436 81.5699H65.4774V189.843H48.0436C47.7163 189.843 47.4101 189.991 47.2094 190.245L2.22587 247.288C1.97244 247.605 1.93018 248.038 2.10969 248.408C2.28921 248.778 2.65881 249 3.06008 249H359.856C360.162 249 360.447 248.873 360.648 248.641L388.736 216.668C388.905 216.478 389 216.224 389 215.971V112.834C389 112.591 388.916 112.348 388.757 112.158L362.633 80.7455V28.0569C362.633 27.4756 362.158 27 361.577 27H149.394Z" fill="white" fill-opacity="0.1"/>
    <path d="M217.299 32.3669C217.299 31.9307 216.944 31.5693 216.501 31.5693C216.059 31.5693 215.704 31.9245 215.704 32.3669C215.704 32.8093 216.059 33.1645 216.501 33.1645C216.944 33.1645 217.299 32.8093 217.299 32.3669Z" fill="white"/>
    <path d="M216.501 22.6962C218.501 22.6962 220.153 24.2042 220.39 26.1421H223.985C223.736 22.2164 220.489 19.1133 216.501 19.1133C212.513 19.1133 209.267 22.2227 209.018 26.1421H212.613C212.85 24.2042 214.501 22.6962 216.501 22.6962ZM220.907 21.5123C221.119 21.5123 221.287 21.6868 221.287 21.8924C221.287 22.098 221.119 22.2725 220.907 22.2725C220.695 22.2725 220.527 22.1043 220.527 21.8924C220.527 21.6805 220.701 21.5123 220.907 21.5123ZM219.941 22.6713C220.047 22.6713 220.134 22.7585 220.134 22.8645C220.134 22.9704 220.047 23.0576 219.941 23.0576C219.835 23.0576 219.748 22.9704 219.748 22.8645C219.748 22.7585 219.835 22.6713 219.941 22.6713ZM216.508 19.3999C217.305 19.3999 217.953 20.048 217.953 20.8456C217.953 21.6432 217.305 22.2912 216.508 22.2912C215.71 22.2912 215.062 21.6432 215.062 20.8456C215.062 20.048 215.71 19.3999 216.508 19.3999Z" fill="white"/>
    <path d="M216.501 23.1445C214.756 23.1445 213.311 24.4531 213.086 26.1417H213.311C213.529 24.5777 214.875 23.3689 216.495 23.3689C218.115 23.3689 219.461 24.5777 219.679 26.1417H219.903C219.685 24.4531 218.24 23.1445 216.489 23.1445H216.501Z" fill="white"/>
    <path d="M225.181 2.06447C225.181 2.06447 225.231 2.07694 225.256 2.07694C225.35 2.07694 225.437 2.02086 225.468 1.92739C225.505 1.80899 225.449 1.67814 225.331 1.64075C225.212 1.60336 225.082 1.66568 225.044 1.77784C225.007 1.89623 225.063 2.02086 225.181 2.05824V2.06447Z" fill="white"/>
    <path d="M231.101 5.0489C231.138 5.07382 231.182 5.09251 231.226 5.09251C231.3 5.09251 231.363 5.05513 231.406 4.99281C231.481 4.88688 231.45 4.7498 231.35 4.68125C231.244 4.61271 231.107 4.63763 231.039 4.73733C230.97 4.84326 231.001 4.98035 231.101 5.0489Z" fill="white"/>
    <path d="M242.554 25.5304C242.554 25.6488 242.66 25.7423 242.778 25.7423H242.785C242.909 25.7361 243.003 25.6301 243.003 25.5117C242.996 25.3871 242.89 25.2874 242.772 25.2999C242.647 25.2999 242.554 25.4058 242.56 25.5304H242.554Z" fill="white"/>
    <path d="M227.244 2.8925C227.244 2.8925 227.3 2.91119 227.331 2.91119C227.419 2.91119 227.5 2.86134 227.537 2.78034C227.587 2.66194 227.537 2.53109 227.425 2.48124C227.313 2.43139 227.176 2.48124 227.126 2.5934C227.076 2.70556 227.126 2.84265 227.244 2.8925Z" fill="white"/>
    <path d="M220.907 0.961337H220.944C221.05 0.961337 221.144 0.886563 221.162 0.780632C221.187 0.662239 221.106 0.543846 220.982 0.518921C220.863 0.493996 220.745 0.581233 220.726 0.699626C220.701 0.818019 220.782 0.936412 220.907 0.961337Z" fill="white"/>
    <path d="M223.069 1.42239C223.069 1.42239 223.106 1.43485 223.125 1.43485C223.225 1.43485 223.312 1.36631 223.343 1.26661C223.374 1.14822 223.306 1.02359 223.181 0.992436C223.063 0.96128 222.938 1.03606 222.907 1.15445C222.876 1.27284 222.944 1.39747 223.069 1.42862V1.42239Z" fill="white"/>
    <path d="M218.714 0.681383H218.732C218.851 0.681383 218.944 0.594146 218.957 0.475753C218.963 0.351129 218.876 0.245198 218.751 0.232736C218.633 0.226505 218.521 0.313742 218.508 0.432135C218.502 0.556759 218.589 0.66269 218.714 0.681383Z" fill="white"/>
    <path d="M242.367 23.3253C242.379 23.4374 242.479 23.5247 242.591 23.5247C242.597 23.5247 242.61 23.5247 242.616 23.5247C242.735 23.5122 242.828 23.4 242.809 23.2754C242.797 23.157 242.685 23.0698 242.56 23.0822C242.442 23.0947 242.348 23.2131 242.367 23.3315V23.3253Z" fill="white"/>
    <path d="M237.463 11.1433C237.501 11.1994 237.569 11.2306 237.644 11.2306C237.687 11.2306 237.731 11.2181 237.775 11.187C237.881 11.1122 237.893 10.9751 237.825 10.8754C237.75 10.7695 237.613 10.7508 237.513 10.8255C237.413 10.9003 237.395 11.0436 237.463 11.1371V11.1433Z" fill="white"/>
    <path d="M236.242 9.49763C236.292 9.49763 236.348 9.47894 236.391 9.44155C236.479 9.36054 236.491 9.21723 236.41 9.12376C236.329 9.03652 236.186 9.02406 236.098 9.10506C236.005 9.18607 235.992 9.32939 236.073 9.42286C236.117 9.47271 236.179 9.4914 236.242 9.4914V9.49763Z" fill="white"/>
    <path d="M233.021 6.41366C233.089 6.41366 233.151 6.38874 233.195 6.33266C233.27 6.23296 233.257 6.08964 233.164 6.01487C233.07 5.94009 232.927 5.95255 232.852 6.05225C232.777 6.14572 232.79 6.28904 232.89 6.36381C232.927 6.39497 232.977 6.41366 233.027 6.41366H233.021Z" fill="white"/>
    <path d="M234.697 7.89024C234.753 7.89024 234.815 7.86532 234.859 7.8217C234.946 7.73446 234.94 7.59114 234.852 7.5039C234.765 7.41667 234.622 7.41667 234.541 7.5039C234.454 7.59114 234.454 7.74069 234.541 7.8217C234.584 7.85908 234.64 7.88401 234.697 7.88401V7.89024Z" fill="white"/>
    <path d="M229.213 3.89036C229.251 3.90905 229.288 3.91528 229.325 3.91528C229.4 3.91528 229.475 3.87166 229.518 3.80312C229.581 3.69719 229.543 3.55387 229.431 3.49779C229.325 3.43548 229.188 3.47287 229.126 3.58503C229.07 3.69096 229.101 3.82805 229.213 3.89036Z" fill="white"/>
    <path d="M201.702 5.14149C201.745 5.14149 201.789 5.12903 201.826 5.1041C201.932 5.03556 201.957 4.89847 201.882 4.79254C201.814 4.68661 201.677 4.66169 201.571 4.73646C201.465 4.80501 201.44 4.94209 201.515 5.04802C201.552 5.11033 201.627 5.14772 201.695 5.14772L201.702 5.14149Z" fill="white"/>
    <path d="M195.309 11.3111C195.378 11.3111 195.446 11.2799 195.49 11.2176C195.565 11.1179 195.546 10.9808 195.446 10.906C195.346 10.8313 195.203 10.85 195.135 10.9497C195.06 11.0556 195.078 11.1927 195.178 11.2612C195.222 11.2924 195.265 11.3048 195.315 11.3048L195.309 11.3111Z" fill="white"/>
    <path d="M196.705 9.57337C196.767 9.57337 196.829 9.54845 196.873 9.4986C196.96 9.40513 196.948 9.26181 196.854 9.18081C196.761 9.0998 196.618 9.10603 196.537 9.20573C196.456 9.29297 196.468 9.43629 196.562 9.51729C196.599 9.55468 196.655 9.57337 196.711 9.57337H196.705Z" fill="white"/>
    <path d="M203.597 3.96476C203.634 3.96476 203.671 3.95853 203.702 3.93984C203.808 3.87752 203.852 3.74044 203.79 3.63451C203.734 3.52858 203.59 3.48496 203.484 3.54727C203.378 3.60335 203.335 3.74667 203.397 3.8526C203.435 3.92737 203.516 3.96476 203.597 3.96476Z" fill="white"/>
    <path d="M198.244 7.95823C198.3 7.95823 198.356 7.9333 198.4 7.89592C198.487 7.80868 198.487 7.66536 198.4 7.57812C198.312 7.49089 198.169 7.49089 198.088 7.57812C198.001 7.66536 197.995 7.80868 198.082 7.89592C198.126 7.93953 198.188 7.96446 198.244 7.96446V7.95823Z" fill="white"/>
    <path d="M211.959 0.973894C211.959 0.973894 211.984 0.973894 211.996 0.973894C212.114 0.9552 212.195 0.836807 212.177 0.718414C212.152 0.59379 212.04 0.512784 211.915 0.537709C211.797 0.562634 211.716 0.674795 211.734 0.79942C211.753 0.905351 211.847 0.980125 211.952 0.980125L211.959 0.973894Z" fill="white"/>
    <path d="M216.402 0.587319C216.402 0.587319 216.439 0.587319 216.452 0.587319C216.47 0.587319 216.489 0.587319 216.508 0.587319C216.626 0.587319 216.732 0.48762 216.732 0.362996C216.732 0.238371 216.626 0.138672 216.508 0.138672C216.489 0.138672 216.47 0.138672 216.452 0.138672C216.439 0.138672 216.421 0.138672 216.402 0.138672C216.277 0.138672 216.177 0.244603 216.177 0.362996C216.177 0.481389 216.277 0.587319 216.402 0.587319Z" fill="white"/>
    <path d="M214.177 0.686265H214.195C214.314 0.673802 214.414 0.567871 214.395 0.437016C214.389 0.318623 214.276 0.218923 214.152 0.237617C214.033 0.243848 213.934 0.35601 213.952 0.480634C213.959 0.599028 214.058 0.686265 214.177 0.686265Z" fill="white"/>
    <path d="M205.584 2.95469C205.616 2.95469 205.647 2.95469 205.678 2.93599C205.79 2.87991 205.84 2.75529 205.79 2.63689C205.734 2.52473 205.603 2.47488 205.491 2.53096C205.379 2.58081 205.329 2.71167 205.385 2.82383C205.422 2.90484 205.503 2.95469 205.584 2.95469Z" fill="white"/>
    <path d="M207.653 2.11368C207.653 2.11368 207.703 2.11368 207.728 2.10122C207.846 2.0576 207.902 1.93297 207.865 1.81458C207.827 1.69619 207.697 1.64011 207.578 1.67749C207.46 1.72111 207.404 1.84574 207.441 1.96413C207.472 2.05137 207.56 2.11368 207.653 2.11368Z" fill="white"/>
    <path d="M209.784 1.45341C209.784 1.45341 209.821 1.45341 209.84 1.44718C209.958 1.41602 210.033 1.2914 210.002 1.173C209.971 1.05461 209.853 0.979835 209.728 1.01099C209.61 1.04215 209.535 1.16677 209.566 1.28516C209.591 1.38486 209.684 1.45341 209.784 1.45341Z" fill="white"/>
    <path d="M199.914 6.4822C199.963 6.4822 200.013 6.46351 200.057 6.42612C200.157 6.35134 200.169 6.21426 200.094 6.11456C200.013 6.02109 199.876 6.0024 199.777 6.0834C199.683 6.15818 199.671 6.3015 199.745 6.39496C199.789 6.45104 199.851 6.4822 199.92 6.4822H199.914Z" fill="white"/>
    <path d="M196.661 43.9128C196.568 43.9938 196.555 44.1371 196.636 44.2244C196.68 44.2742 196.742 44.2991 196.804 44.2991C196.861 44.2991 196.91 44.2804 196.954 44.2431C197.047 44.1558 197.054 44.0187 196.973 43.9253C196.892 43.8318 196.748 43.8193 196.661 43.9066V43.9128Z" fill="white"/>
    <path d="M236.098 43.8567C236.011 43.9502 236.024 44.0873 236.117 44.1745C236.161 44.2119 236.217 44.2306 236.267 44.2306C236.329 44.2306 236.391 44.2057 236.435 44.1558C236.516 44.0624 236.51 43.919 236.41 43.838C236.317 43.757 236.179 43.7633 236.098 43.863V43.8567Z" fill="white"/>
    <path d="M237.488 42.1372C237.413 42.2369 237.432 42.3802 237.531 42.4487C237.569 42.4799 237.619 42.4923 237.669 42.4923C237.737 42.4923 237.806 42.4612 237.849 42.4051C237.924 42.3054 237.905 42.1621 237.806 42.0935C237.7 42.0188 237.563 42.0375 237.494 42.1372H237.488Z" fill="white"/>
    <path d="M218.763 52.6364C218.645 52.6489 218.551 52.7548 218.564 52.8794C218.57 52.9916 218.67 53.0788 218.788 53.0788H218.807C218.925 53.0664 219.018 52.9605 219.012 52.8358C219 52.7112 218.894 52.624 218.763 52.6302V52.6364Z" fill="white"/>
    <path d="M216.551 53.1791C216.675 53.1791 216.776 53.0787 216.776 52.9548C216.776 52.8309 216.675 52.7305 216.551 52.7305C216.427 52.7305 216.327 52.8309 216.327 52.9548C216.327 53.0787 216.427 53.1791 216.551 53.1791Z" fill="white"/>
    <path d="M220.957 52.3499C220.838 52.3748 220.751 52.487 220.776 52.6116C220.795 52.7175 220.894 52.7985 221 52.7985C221.007 52.7985 221.025 52.7985 221.038 52.7985C221.156 52.7736 221.237 52.6615 221.218 52.5368C221.193 52.4184 221.081 52.3374 220.957 52.3499Z" fill="white"/>
    <path d="M229.256 49.4086C229.15 49.4647 229.107 49.6018 229.169 49.7139C229.213 49.7825 229.287 49.8261 229.368 49.8261C229.406 49.8261 229.443 49.8136 229.481 49.8012C229.587 49.7389 229.624 49.6018 229.568 49.4958C229.506 49.3899 229.369 49.3463 229.263 49.4086H229.256Z" fill="white"/>
    <path d="M233.226 46.9544C233.145 46.8547 233.008 46.8423 232.908 46.9233C232.815 46.9981 232.802 47.1352 232.877 47.2349C232.921 47.2909 232.983 47.3159 233.052 47.3159C233.102 47.3159 233.151 47.3034 233.195 47.266C233.295 47.1912 233.307 47.0479 233.232 46.9544H233.226Z" fill="white"/>
    <path d="M225.232 51.2346C225.113 51.272 225.051 51.4029 225.095 51.5213C225.126 51.6085 225.213 51.6708 225.306 51.6708C225.331 51.6708 225.356 51.6708 225.381 51.6584C225.493 51.621 225.556 51.4901 225.518 51.3717C225.481 51.2533 225.35 51.191 225.232 51.2346Z" fill="white"/>
    <path d="M227.281 50.4058C227.169 50.4557 227.119 50.5865 227.175 50.6987C227.213 50.7797 227.294 50.8295 227.375 50.8295C227.406 50.8295 227.437 50.8296 227.468 50.8109C227.581 50.7548 227.63 50.6302 227.581 50.518C227.524 50.3996 227.4 50.3497 227.281 50.4058Z" fill="white"/>
    <path d="M234.565 45.458C234.478 45.5453 234.478 45.6886 234.565 45.7696C234.609 45.8195 234.671 45.8444 234.727 45.8444C234.784 45.8444 234.84 45.8194 234.883 45.7821C234.97 45.6948 234.97 45.5515 234.883 45.4643C234.796 45.377 234.653 45.3708 234.565 45.4643V45.458Z" fill="white"/>
    <path d="M223.119 51.8895C223 51.9207 222.932 52.0391 222.963 52.1637C222.988 52.2634 223.081 52.3319 223.181 52.3319C223.2 52.3319 223.219 52.3319 223.237 52.3319C223.356 52.2946 223.424 52.1762 223.393 52.0578C223.362 51.9394 223.243 51.8646 223.119 51.8958V51.8895Z" fill="white"/>
    <path d="M199.858 47.0161C199.777 47.1096 199.796 47.2529 199.889 47.3277C199.933 47.3588 199.982 47.3775 200.032 47.3775C200.095 47.3775 200.163 47.3526 200.207 47.2903C200.282 47.1968 200.263 47.0535 200.169 46.9787C200.07 46.904 199.933 46.9164 199.858 47.0161Z" fill="white"/>
    <path d="M201.951 48.3004C201.845 48.2319 201.708 48.263 201.64 48.3627C201.571 48.4624 201.602 48.6057 201.702 48.6743C201.739 48.6992 201.783 48.7117 201.82 48.7117C201.889 48.7117 201.964 48.6805 202.007 48.612C202.076 48.5123 202.045 48.3689 201.945 48.3004H201.951Z" fill="white"/>
    <path d="M239.033 40.23C238.927 40.1614 238.79 40.1988 238.722 40.3047C238.653 40.4107 238.691 40.5478 238.796 40.6163C238.834 40.6412 238.871 40.6475 238.915 40.6475C238.99 40.6475 239.064 40.6101 239.108 40.5415C239.177 40.4356 239.139 40.2923 239.033 40.23Z" fill="white"/>
    <path d="M214.345 52.6429C214.221 52.6366 214.115 52.7301 214.102 52.8485C214.096 52.9731 214.183 53.0791 214.308 53.0915C214.426 53.0978 214.539 53.0105 214.551 52.8859C214.557 52.7675 214.464 52.6553 214.345 52.6429Z" fill="white"/>
    <path d="M203.839 49.4527C203.733 49.3966 203.596 49.434 203.534 49.5399C203.478 49.6459 203.509 49.783 203.621 49.8453C203.652 49.864 203.696 49.8702 203.727 49.8702C203.802 49.8702 203.877 49.8328 203.927 49.7518C203.983 49.6459 203.945 49.5088 203.839 49.4465V49.4527Z" fill="white"/>
    <path d="M198.188 45.5329C198.101 45.6201 198.107 45.7634 198.194 45.8507C198.238 45.888 198.294 45.913 198.344 45.913C198.4 45.913 198.462 45.888 198.506 45.8382C198.593 45.751 198.587 45.6076 198.506 45.5204C198.418 45.4332 198.275 45.4394 198.188 45.5266V45.5329Z" fill="white"/>
    <path d="M209.984 51.9143C209.865 51.8832 209.735 51.9579 209.71 52.0763C209.678 52.1947 209.747 52.3193 209.865 52.3505C209.89 52.3505 209.903 52.3505 209.922 52.3505C210.021 52.3505 210.115 52.282 210.14 52.1823C210.171 52.0639 210.102 51.933 209.978 51.9081L209.984 51.9143Z" fill="white"/>
    <path d="M212.152 52.3689C212.033 52.3502 211.915 52.4312 211.896 52.5558C211.871 52.6742 211.952 52.7926 212.077 52.8175H212.114C212.22 52.8175 212.314 52.7428 212.332 52.6306C212.357 52.5122 212.27 52.3938 212.152 52.3689Z" fill="white"/>
    <path d="M207.871 51.2658C207.752 51.2284 207.621 51.2907 207.584 51.4028C207.547 51.5212 207.609 51.6521 207.721 51.6895C207.746 51.6957 207.771 51.7019 207.796 51.7019C207.883 51.7019 207.977 51.6459 208.008 51.5462C208.045 51.4278 207.983 51.2969 207.871 51.2595V51.2658Z" fill="white"/>
    <path d="M238.89 13.0867C238.927 13.0867 238.971 13.0743 239.008 13.0493C239.114 12.9808 239.146 12.8499 239.083 12.7378C239.015 12.6319 238.878 12.6007 238.772 12.6692C238.666 12.7316 238.635 12.8686 238.697 12.9808C238.741 13.0493 238.815 13.0867 238.89 13.0867Z" fill="white"/>
    <path d="M205.815 50.45C205.697 50.4001 205.566 50.45 205.516 50.5621C205.466 50.6743 205.516 50.8114 205.628 50.8612C205.659 50.8737 205.69 50.8862 205.722 50.8862C205.809 50.8862 205.89 50.8363 205.927 50.7491C205.977 50.6369 205.927 50.4998 205.815 50.45Z" fill="white"/>
    <path d="M242.622 29.7494C242.504 29.7369 242.392 29.8179 242.373 29.9426C242.355 30.0672 242.448 30.1793 242.566 30.1918C242.573 30.1918 242.585 30.1918 242.591 30.1918C242.703 30.1918 242.803 30.1046 242.816 29.9924C242.828 29.8678 242.741 29.7619 242.616 29.7432L242.622 29.7494Z" fill="white"/>
    <path d="M241.65 19.1632C241.65 19.1632 241.694 19.1632 241.719 19.157C241.837 19.1196 241.9 18.995 241.868 18.8766C241.831 18.7582 241.706 18.6896 241.588 18.727C241.47 18.7644 241.401 18.889 241.438 19.0074C241.47 19.1009 241.557 19.1632 241.65 19.1632Z" fill="white"/>
    <path d="M190.218 25.8487H190.224C190.343 25.8487 190.442 25.7552 190.449 25.6368C190.449 25.5122 190.355 25.4062 190.231 25.4062C190.106 25.4062 190 25.4935 190 25.6243C190 25.7427 190.087 25.8549 190.218 25.8549V25.8487Z" fill="white"/>
    <path d="M241.732 34.1172C241.613 34.0798 241.489 34.1421 241.451 34.2668C241.414 34.3852 241.482 34.5098 241.601 34.5472C241.626 34.5534 241.644 34.5596 241.669 34.5596C241.763 34.5596 241.85 34.4973 241.887 34.3976C241.925 34.2792 241.856 34.1546 241.738 34.1172H241.732Z" fill="white"/>
    <path d="M190.38 23.6178C190.38 23.6178 190.398 23.6178 190.405 23.6178C190.517 23.6178 190.617 23.5306 190.629 23.4184C190.641 23.2938 190.554 23.1816 190.43 23.1692C190.311 23.1567 190.199 23.2439 190.18 23.3623C190.168 23.4869 190.255 23.5991 190.38 23.6116V23.6178Z" fill="white"/>
    <path d="M191.028 32.2228C191.003 32.1044 190.885 32.0234 190.766 32.0546C190.648 32.0795 190.567 32.2041 190.598 32.3225C190.623 32.4284 190.716 32.497 190.816 32.497C190.835 32.497 190.847 32.497 190.866 32.497C190.984 32.472 191.065 32.3537 191.034 32.2353L191.028 32.2228Z" fill="white"/>
    <path d="M190.648 30.042C190.629 29.9236 190.517 29.8364 190.399 29.8488C190.28 29.8675 190.187 29.9797 190.206 30.0981C190.218 30.2103 190.318 30.2975 190.424 30.2975C190.436 30.2975 190.449 30.2975 190.455 30.2975C190.573 30.285 190.667 30.1729 190.648 30.0482V30.042Z" fill="white"/>
    <path d="M190.243 28.0788C190.362 28.0726 190.461 27.9666 190.455 27.8483C190.455 27.7236 190.349 27.6239 190.224 27.6302C190.1 27.6302 190.006 27.7361 190.006 27.8607C190.013 27.9791 190.112 28.0788 190.237 28.0788H190.243Z" fill="white"/>
    <path d="M192.947 38.3607C192.835 38.4168 192.792 38.5476 192.848 38.6598C192.885 38.7346 192.966 38.7782 193.047 38.7782C193.084 38.7782 193.122 38.7782 193.153 38.7533C193.265 38.6972 193.303 38.5601 193.253 38.4542C193.197 38.342 193.06 38.2984 192.954 38.3545L192.947 38.3607Z" fill="white"/>
    <path d="M231.132 48.2439C231.032 48.3124 231.001 48.4495 231.076 48.5555C231.12 48.624 231.188 48.6552 231.257 48.6552C231.3 48.6552 231.344 48.6427 231.381 48.6178C231.487 48.543 231.512 48.4059 231.444 48.3062C231.369 48.2003 231.232 48.1754 231.132 48.2501V48.2439Z" fill="white"/>
    <path d="M192.879 15.0937C192.91 15.1124 192.947 15.1187 192.979 15.1187C193.06 15.1187 193.141 15.075 193.178 15.0003C193.234 14.8881 193.184 14.751 193.078 14.7012C192.966 14.6451 192.829 14.6887 192.773 14.8009C192.717 14.913 192.767 15.0501 192.879 15.1V15.0937Z" fill="white"/>
    <path d="M193.945 13.1301C193.982 13.1551 194.019 13.1613 194.063 13.1613C194.138 13.1613 194.212 13.1239 194.256 13.0554C194.318 12.9494 194.287 12.8123 194.181 12.7438C194.075 12.6815 193.938 12.7126 193.876 12.8186C193.807 12.9245 193.839 13.0616 193.951 13.1301H193.945Z" fill="white"/>
    <path d="M191.988 17.1376C191.988 17.1376 192.044 17.1563 192.069 17.1563C192.156 17.1563 192.243 17.1002 192.281 17.0192C192.324 16.9008 192.268 16.7699 192.156 16.7263C192.038 16.6765 191.907 16.7325 191.863 16.8447C191.82 16.9631 191.869 17.094 191.988 17.1376Z" fill="white"/>
    <path d="M242.273 31.9496C242.155 31.9247 242.03 32.0057 242.005 32.1241C241.981 32.2425 242.062 32.3671 242.18 32.3858C242.192 32.3858 242.211 32.3858 242.224 32.3858C242.33 32.3858 242.423 32.311 242.442 32.2113C242.467 32.0929 242.392 31.9683 242.273 31.9434V31.9496Z" fill="white"/>
    <path d="M190.729 21.4127C190.729 21.4127 190.76 21.4127 190.773 21.4127C190.879 21.4127 190.972 21.3441 190.991 21.2382C191.016 21.1198 190.941 20.9952 190.823 20.9765C190.704 20.9515 190.579 21.0263 190.555 21.1447C190.53 21.2631 190.611 21.3877 190.729 21.4064V21.4127Z" fill="white"/>
    <path d="M242.211 21.3179C242.211 21.3179 242.242 21.3179 242.255 21.3179C242.373 21.293 242.454 21.1684 242.429 21.0562C242.404 20.9316 242.28 20.8568 242.161 20.8817C242.043 20.9067 241.962 21.0313 241.993 21.1434C242.018 21.2494 242.111 21.3241 242.211 21.3241V21.3179Z" fill="white"/>
    <path d="M239.987 15.0313C240.018 15.0313 240.056 15.0251 240.087 15.0064C240.199 14.9503 240.242 14.8195 240.186 14.7073C240.13 14.5951 239.999 14.5578 239.887 14.6076C239.775 14.6637 239.732 14.8008 239.788 14.9067C239.831 14.9877 239.906 15.0313 239.987 15.0313Z" fill="white"/>
    <path d="M195.266 42.1687C195.166 42.2373 195.147 42.3806 195.222 42.4803C195.266 42.5364 195.334 42.5675 195.403 42.5675C195.446 42.5675 195.496 42.5488 195.54 42.5239C195.639 42.4491 195.658 42.3058 195.583 42.2124C195.509 42.1127 195.365 42.094 195.272 42.1687H195.266Z" fill="white"/>
    <path d="M192.038 36.3232C191.925 36.3731 191.869 36.5039 191.919 36.6161C191.95 36.7033 192.038 36.7594 192.125 36.7594C192.15 36.7594 192.181 36.7469 192.212 36.7407C192.324 36.6971 192.38 36.56 192.33 36.4478C192.287 36.3294 192.156 36.2796 192.038 36.3232Z" fill="white"/>
    <path d="M240.105 38.2744C239.993 38.2183 239.856 38.2619 239.806 38.3741C239.75 38.4863 239.794 38.6234 239.906 38.6732C239.937 38.6919 239.974 38.6981 240.006 38.6981C240.093 38.6981 240.168 38.6545 240.205 38.5797C240.261 38.4676 240.211 38.3367 240.105 38.2806V38.2744Z" fill="white"/>
    <path d="M240.903 17.0566C240.903 17.0566 240.959 17.0566 240.99 17.0379C241.102 16.9943 241.158 16.8634 241.108 16.745C241.065 16.6266 240.934 16.5768 240.815 16.6266C240.703 16.6703 240.647 16.8011 240.697 16.9195C240.734 17.0067 240.815 17.0566 240.903 17.0566Z" fill="white"/>
    <path d="M241.009 36.2295C240.89 36.1858 240.759 36.2357 240.716 36.3541C240.672 36.4725 240.722 36.6033 240.84 36.647C240.865 36.6532 240.897 36.6657 240.921 36.6657C241.009 36.6657 241.096 36.6096 241.133 36.5223C241.177 36.4039 241.121 36.2731 241.009 36.2295Z" fill="white"/>
    <path d="M191.265 19.2497C191.265 19.2497 191.308 19.2559 191.333 19.2559C191.427 19.2559 191.514 19.1936 191.551 19.1002C191.589 18.9818 191.52 18.8571 191.402 18.8198C191.283 18.7824 191.159 18.8509 191.121 18.9755C191.084 19.0939 191.152 19.2186 191.271 19.2559L191.265 19.2497Z" fill="white"/>
    <path d="M194.026 40.3173C193.92 40.3796 193.889 40.5167 193.951 40.6289C193.994 40.6974 194.069 40.7348 194.144 40.7348C194.181 40.7348 194.225 40.7286 194.262 40.7036C194.368 40.6351 194.399 40.498 194.337 40.3921C194.269 40.2861 194.138 40.255 194.026 40.3235V40.3173Z" fill="white"/>
    <path d="M242.791 27.5244C242.666 27.5244 242.56 27.6117 242.554 27.7363C242.554 27.8609 242.648 27.9668 242.766 27.9731H242.772C242.891 27.9731 242.99 27.8734 242.997 27.7612C242.997 27.6366 242.909 27.5306 242.785 27.5306L242.791 27.5244Z" fill="white"/>
    <path d="M191.309 34.2174C191.19 34.2548 191.128 34.3795 191.159 34.4978C191.19 34.5975 191.277 34.6599 191.377 34.6599C191.402 34.6599 191.421 34.6599 191.446 34.6474C191.564 34.61 191.626 34.4854 191.595 34.367C191.558 34.2424 191.427 34.1863 191.315 34.2174H191.309Z" fill="white"/>
    <path d="M216.501 9.00553V7.21094C205.815 7.21094 197.122 15.9035 197.122 26.59H198.917C198.917 16.8942 206.805 8.9993 216.507 8.9993L216.501 9.00553Z" fill="white"/>
    <path d="M216.501 48.506V46.7114C211.111 46.7114 206.213 44.5741 202.599 41.1095L205.752 37.9565C208.556 40.6235 212.339 42.2685 216.507 42.2685V41.8199C212.463 41.8199 208.793 40.2247 206.07 37.6387L208.089 35.6198C210.301 37.6761 213.261 38.9411 216.507 38.9411V38.5485C223.112 38.5485 228.484 33.1772 228.484 26.5721H228.876C228.876 19.7489 223.324 14.2031 216.507 14.2031V14.5957C209.902 14.5957 204.531 19.967 204.531 26.5721H204.138C204.138 29.8248 205.397 32.7784 207.453 34.9905L205.441 37.0031C202.905 34.2926 201.347 30.6535 201.347 26.6531H200.898C200.898 30.7719 202.506 34.5231 205.123 37.3209L201.97 40.4739C198.518 36.8598 196.393 31.9683 196.393 26.5908H194.598C194.598 38.6731 204.425 48.4997 216.507 48.4997L216.501 48.506ZM205.029 26.5783H204.637C204.637 20.0355 209.958 14.7141 216.501 14.7141V15.1067C222.826 15.1067 227.973 20.2536 227.973 26.5783H228.365C228.365 33.1211 223.044 38.4426 216.501 38.4426V38.05C213.498 38.05 210.762 36.891 208.718 34.9967L211.504 32.2113C212.831 33.4015 214.582 34.1306 216.501 34.1306C220.508 34.1306 223.767 30.99 223.991 27.0394H220.402C220.19 29.0085 218.526 30.5414 216.501 30.5414C215.573 30.5414 214.713 30.2111 214.04 29.669L214.395 29.3138C214.974 29.7625 215.704 30.0366 216.501 30.0366C218.246 30.0366 219.691 28.7281 219.916 27.0394H219.691C219.473 28.6035 218.127 29.8123 216.507 29.8123C215.778 29.8123 215.105 29.5631 214.563 29.1518L215.473 28.2421C215.772 28.4352 216.127 28.5474 216.507 28.5474C217.573 28.5474 218.439 27.6812 218.439 26.6157C218.439 25.5502 217.573 24.684 216.507 24.684C215.442 24.684 214.576 25.5502 214.576 26.6157C214.576 26.9771 214.682 27.3074 214.85 27.594L213.934 28.51C213.616 28.0863 213.398 27.5815 213.323 27.0332H213.099C213.18 27.6439 213.417 28.2047 213.778 28.672L213.423 29.0272C212.98 28.4664 212.688 27.7809 212.613 27.0332H209.024C209.117 28.7655 209.803 30.342 210.881 31.5695L208.095 34.3549C206.201 32.3048 205.042 29.5693 205.042 26.5721L205.029 26.5783ZM215.018 32.3734C215.018 31.5571 215.685 30.8903 216.501 30.8903C217.317 30.8903 217.984 31.5571 217.984 32.3734C217.984 33.1896 217.317 33.8564 216.501 33.8564C215.685 33.8564 215.018 33.1896 215.018 32.3734Z" fill="white"/>
    <path d="M215.604 50.668C215.604 50.668 215.617 50.6935 215.629 50.6935C215.642 50.6935 215.655 50.6808 215.655 50.668C215.655 50.6553 215.642 50.6426 215.629 50.6426C215.617 50.6426 215.604 50.6553 215.604 50.668Z" fill="white"/>
    <path d="M214.732 50.5684C214.732 50.5684 214.682 50.5871 214.682 50.6184C214.682 50.6496 214.7 50.6684 214.732 50.6684C214.763 50.6684 214.782 50.6496 214.782 50.6184C214.782 50.5871 214.763 50.5684 214.732 50.5684Z" fill="white"/>
    <path d="M213.828 50.4678C213.791 50.4678 213.759 50.499 213.759 50.5365C213.759 50.574 213.791 50.6053 213.828 50.6053C213.866 50.6053 213.897 50.574 213.897 50.5365C213.897 50.499 213.866 50.4678 213.828 50.4678Z" fill="white"/>
    <path d="M212.938 50.3311C212.888 50.3311 212.85 50.3686 212.85 50.4186C212.85 50.4686 212.888 50.5061 212.938 50.5061C212.988 50.5061 213.025 50.4686 213.025 50.4186C213.025 50.3686 212.988 50.3311 212.938 50.3311Z" fill="white"/>
    <path d="M211.94 50.2693C211.94 50.3256 211.984 50.3756 212.046 50.3756C212.109 50.3756 212.153 50.3256 212.153 50.2693C212.153 50.2131 212.103 50.1631 212.046 50.1631C211.99 50.1631 211.94 50.2131 211.94 50.2693Z" fill="white"/>
    <path d="M211.168 49.9639C211.099 49.9639 211.049 50.0201 211.049 50.0826C211.049 50.1451 211.106 50.2014 211.168 50.2014C211.231 50.2014 211.287 50.1451 211.287 50.0826C211.287 50.0201 211.231 49.9639 211.168 49.9639Z" fill="white"/>
    <path d="M210.289 49.7324C210.214 49.7324 210.158 49.7887 210.158 49.8637C210.158 49.9387 210.214 49.9949 210.289 49.9949C210.364 49.9949 210.42 49.9387 210.42 49.8637C210.42 49.7887 210.364 49.7324 210.289 49.7324Z" fill="white"/>
    <path d="M209.423 49.4766C209.342 49.4766 209.279 49.5391 209.279 49.6203C209.279 49.7016 209.342 49.7641 209.423 49.7641C209.504 49.7641 209.567 49.7016 209.567 49.6203C209.567 49.5391 209.504 49.4766 209.423 49.4766Z" fill="white"/>
    <path d="M208.569 49.1846C208.482 49.1846 208.413 49.2533 208.413 49.3408C208.413 49.4283 208.482 49.4971 208.569 49.4971C208.657 49.4971 208.726 49.4283 208.726 49.3408C208.726 49.2533 208.657 49.1846 208.569 49.1846Z" fill="white"/>
    <path d="M207.721 49.1841C207.815 49.1841 207.89 49.1094 207.89 49.0159C207.89 48.9224 207.815 48.8477 207.721 48.8477C207.628 48.8477 207.553 48.9224 207.553 49.0159C207.553 49.1094 207.628 49.1841 207.721 49.1841Z" fill="white"/>
    <path d="M206.886 48.5C206.787 48.5 206.712 48.581 206.712 48.6745C206.712 48.7679 206.793 48.8489 206.886 48.8489C206.98 48.8489 207.061 48.7679 207.061 48.6745C207.061 48.581 206.98 48.5 206.886 48.5Z" fill="white"/>
    <path d="M206.07 48.1133C205.964 48.1133 205.883 48.2005 205.883 48.3002C205.883 48.3999 205.971 48.4872 206.07 48.4872C206.17 48.4872 206.257 48.3999 206.257 48.3002C206.257 48.2005 206.17 48.1133 206.07 48.1133Z" fill="white"/>
    <path d="M205.261 47.7012C205.155 47.7012 205.067 47.7884 205.067 47.8943C205.067 48.0003 205.155 48.0875 205.261 48.0875C205.366 48.0875 205.454 48.0003 205.454 47.8943C205.454 47.7884 205.366 47.7012 205.261 47.7012Z" fill="white"/>
    <path d="M204.475 47.2588C204.369 47.2588 204.275 47.346 204.275 47.4582C204.275 47.5703 204.363 47.6576 204.475 47.6576C204.587 47.6576 204.674 47.5703 204.674 47.4582C204.674 47.346 204.587 47.2588 204.475 47.2588Z" fill="white"/>
    <path d="M203.702 47.1908C203.814 47.1908 203.902 47.1036 203.902 46.9914C203.902 46.8792 203.814 46.792 203.702 46.792C203.59 46.792 203.503 46.8792 203.503 46.9914C203.503 47.1036 203.59 47.1908 203.702 47.1908Z" fill="white"/>
    <path d="M202.949 46.2939C202.836 46.2939 202.743 46.3874 202.743 46.4996C202.743 46.6117 202.836 46.7052 202.949 46.7052C203.061 46.7052 203.154 46.6117 203.154 46.4996C203.154 46.3874 203.061 46.2939 202.949 46.2939Z" fill="white"/>
    <path d="M202.213 45.7637C202.101 45.7637 202.008 45.8571 202.008 45.9693C202.008 46.0815 202.101 46.1749 202.213 46.1749C202.326 46.1749 202.419 46.0815 202.419 45.9693C202.419 45.8571 202.326 45.7637 202.213 45.7637Z" fill="white"/>
    <path d="M201.708 45.4277C201.708 45.3093 201.615 45.2158 201.497 45.2158C201.378 45.2158 201.285 45.3093 201.285 45.4277C201.285 45.5461 201.378 45.6395 201.497 45.6395C201.615 45.6395 201.708 45.5461 201.708 45.4277Z" fill="white"/>
    <path d="M200.805 44.6357C200.687 44.6357 200.587 44.7354 200.587 44.8538C200.587 44.9722 200.687 45.0719 200.805 45.0719C200.923 45.0719 201.023 44.9722 201.023 44.8538C201.023 44.7354 200.923 44.6357 200.805 44.6357Z" fill="white"/>
    <path d="M200.132 44.0322C200.014 44.0322 199.914 44.1319 199.914 44.2503C199.914 44.3687 200.014 44.4684 200.132 44.4684C200.251 44.4684 200.35 44.3687 200.35 44.2503C200.35 44.1319 200.251 44.0322 200.132 44.0322Z" fill="white"/>
    <path d="M199.484 43.4023C199.359 43.4023 199.259 43.502 199.259 43.6267C199.259 43.7513 199.359 43.851 199.484 43.851C199.608 43.851 199.708 43.7513 199.708 43.6267C199.708 43.502 199.608 43.4023 199.484 43.4023Z" fill="white"/>
    <path d="M198.861 42.7539C198.736 42.7539 198.643 42.8536 198.643 42.972C198.643 43.0904 198.742 43.1901 198.861 43.1901C198.979 43.1901 199.079 43.0904 199.079 42.972C199.079 42.8536 198.979 42.7539 198.861 42.7539Z" fill="white"/>
    <path d="M198.475 42.306C198.475 42.1876 198.375 42.0879 198.257 42.0879C198.138 42.0879 198.039 42.1876 198.039 42.306C198.039 42.4244 198.138 42.5241 198.257 42.5241C198.375 42.5241 198.475 42.4244 198.475 42.306Z" fill="white"/>
    <path d="M197.683 41.3955C197.565 41.3955 197.471 41.489 197.471 41.6074C197.471 41.7258 197.565 41.8192 197.683 41.8192C197.801 41.8192 197.895 41.7258 197.895 41.6074C197.895 41.489 197.801 41.3955 197.683 41.3955Z" fill="white"/>
    <path d="M197.135 40.6846C197.016 40.6846 196.923 40.778 196.923 40.8902C196.923 41.0024 197.016 41.1021 197.135 41.1021C197.253 41.1021 197.34 41.0086 197.34 40.8902C197.34 40.7718 197.247 40.6846 197.135 40.6846Z" fill="white"/>
    <path d="M196.817 40.1617C196.817 40.0495 196.724 39.9561 196.611 39.9561C196.499 39.9561 196.406 40.0495 196.406 40.1617C196.406 40.2738 196.499 40.3673 196.611 40.3673C196.724 40.3673 196.817 40.2738 196.817 40.1617Z" fill="white"/>
    <path d="M196.119 39.208C196.007 39.208 195.919 39.2952 195.919 39.4074C195.919 39.5196 196.007 39.6068 196.119 39.6068C196.231 39.6068 196.318 39.5196 196.318 39.4074C196.318 39.2952 196.231 39.208 196.119 39.208Z" fill="white"/>
    <path d="M195.652 38.8343C195.762 38.8343 195.851 38.7451 195.851 38.6349C195.851 38.5248 195.762 38.4355 195.652 38.4355C195.541 38.4355 195.452 38.5248 195.452 38.6349C195.452 38.7451 195.541 38.8343 195.652 38.8343Z" fill="white"/>
    <path d="M195.409 37.8494C195.409 37.7435 195.321 37.6562 195.215 37.6562C195.109 37.6562 195.022 37.7435 195.022 37.8494C195.022 37.9553 195.109 38.0426 195.215 38.0426C195.321 38.0426 195.409 37.9553 195.409 37.8494Z" fill="white"/>
    <path d="M194.804 36.8594C194.698 36.8594 194.617 36.9466 194.617 37.0463C194.617 37.146 194.704 37.2332 194.804 37.2332C194.904 37.2332 194.991 37.146 194.991 37.0463C194.991 36.9466 194.904 36.8594 194.804 36.8594Z" fill="white"/>
    <path d="M194.43 36.0488C194.331 36.0488 194.25 36.1298 194.25 36.2295C194.25 36.3292 194.331 36.4102 194.43 36.4102C194.53 36.4102 194.611 36.3292 194.611 36.2295C194.611 36.1298 194.53 36.0488 194.43 36.0488Z" fill="white"/>
    <path d="M194.082 35.563C194.175 35.563 194.25 35.4883 194.25 35.3948C194.25 35.3013 194.175 35.2266 194.082 35.2266C193.988 35.2266 193.913 35.3013 193.913 35.3948C193.913 35.4883 193.988 35.563 194.082 35.563Z" fill="white"/>
    <path d="M193.77 34.3984C193.683 34.3984 193.614 34.4672 193.614 34.5547C193.614 34.6422 193.683 34.7109 193.77 34.7109C193.858 34.7109 193.927 34.6422 193.927 34.5547C193.927 34.4672 193.858 34.3984 193.77 34.3984Z" fill="white"/>
    <path d="M193.49 33.5508C193.409 33.5508 193.346 33.6133 193.346 33.6945C193.346 33.7758 193.409 33.8383 193.49 33.8383C193.571 33.8383 193.634 33.7758 193.634 33.6945C193.634 33.6133 193.571 33.5508 193.49 33.5508Z" fill="white"/>
    <path d="M193.241 32.9598C193.313 32.9598 193.372 32.901 193.372 32.8285C193.372 32.756 193.313 32.6973 193.241 32.6973C193.168 32.6973 193.109 32.756 193.109 32.8285C193.109 32.901 193.168 32.9598 193.241 32.9598Z" fill="white"/>
    <path d="M192.904 31.9557C192.904 32.0244 192.96 32.0744 193.023 32.0744C193.085 32.0744 193.141 32.0182 193.141 31.9557C193.141 31.8932 193.085 31.8369 193.023 31.8369C192.96 31.8369 192.904 31.8932 192.904 31.9557Z" fill="white"/>
    <path d="M192.942 31.0701C192.942 31.0139 192.892 30.9639 192.836 30.9639C192.779 30.9639 192.729 31.0139 192.729 31.0701C192.729 31.1264 192.779 31.1764 192.836 31.1764C192.892 31.1764 192.942 31.1264 192.942 31.0701Z" fill="white"/>
    <path d="M192.774 30.1861C192.774 30.1361 192.736 30.0986 192.686 30.0986C192.636 30.0986 192.599 30.1361 192.599 30.1861C192.599 30.2361 192.636 30.2736 192.686 30.2736C192.736 30.2736 192.774 30.2361 192.774 30.1861Z" fill="white"/>
    <path d="M192.636 29.2885C192.636 29.251 192.605 29.2197 192.567 29.2197C192.53 29.2197 192.499 29.251 192.499 29.2885C192.499 29.326 192.53 29.3572 192.567 29.3572C192.605 29.3572 192.636 29.326 192.636 29.2885Z" fill="white"/>
    <path d="M192.53 28.3908C192.53 28.3908 192.511 28.3408 192.48 28.3408C192.449 28.3408 192.43 28.3596 192.43 28.3908C192.43 28.4221 192.449 28.4408 192.48 28.4408C192.511 28.4408 192.53 28.4221 192.53 28.3908Z" fill="white"/>
    <path d="M192.437 27.4619C192.437 27.4619 192.411 27.4746 192.411 27.4874C192.411 27.5001 192.424 27.5128 192.437 27.5128C192.45 27.5128 192.462 27.5001 192.462 27.4874C192.462 27.4746 192.45 27.4619 192.437 27.4619Z" fill="white"/>
    <path d="M216.501 46.1689C227.294 46.1689 236.074 37.3891 236.074 26.5967H234.279C234.279 36.3984 226.303 44.3743 216.501 44.3743V46.1689Z" fill="white"/>
    <path d="M232.285 11.9531L229.069 15.1684L227.649 13.7477L230.864 10.5324L231.113 10.2831C227.231 6.80611 222.115 4.6875 216.507 4.6875V6.48209C221.125 6.48209 225.374 8.04613 228.777 10.6695L225.686 13.7602C225.63 13.8162 225.586 13.8785 225.543 13.9409C222.994 12.1276 219.878 11.0496 216.514 11.0496V11.4982C219.785 11.4982 222.82 12.5451 225.3 14.3147C224.901 15.1123 225.025 16.1031 225.686 16.7698L226.054 17.1375C226.739 17.8229 227.767 17.9351 228.577 17.4926C230.515 20.0412 231.674 23.2191 231.674 26.6588H232.123C232.123 23.1194 230.939 19.8543 228.945 17.2372C228.982 17.206 229.026 17.1749 229.063 17.1375L232.185 14.0156C234.958 17.4615 236.622 21.842 236.622 26.5965H238.416C238.416 20.845 236.185 15.6108 232.546 11.6976L232.285 11.9593V11.9531ZM227.325 16.2464C226.901 16.2464 226.552 15.9037 226.552 15.4737C226.552 15.0438 226.895 14.7011 227.325 14.7011C227.755 14.7011 228.097 15.0438 228.097 15.4737C228.097 15.9037 227.755 16.2464 227.325 16.2464Z" fill="white"/>
    <path d="M203.129 26.6587C203.129 19.281 209.13 13.2865 216.501 13.2865V12.8379C208.881 12.8379 202.681 19.038 202.681 26.6587H203.129Z" fill="white"/>
    <path d="M216.501 40.0875V40.5361C224.153 40.5361 230.378 34.3111 230.378 26.6592H229.93C229.93 34.0619 223.904 40.0875 216.501 40.0875Z" fill="white"/>
    <path d="M216.962 43.6758V43.788C226.203 43.788 233.718 36.2731 233.718 27.0322H233.606C233.606 36.2108 226.141 43.6758 216.962 43.6758Z" fill="white"/>
    <path d="M216.551 40.9774V41.0896C224.527 41.0896 231.02 34.6029 231.02 26.627H230.908C230.908 34.5406 224.471 40.9837 216.551 40.9837V40.9774Z" fill="white"/>
    <path d="M192.418 27.2252C192.755 27.2252 193.028 26.9518 193.028 26.6146C193.028 26.2773 192.755 26.0039 192.418 26.0039C192.08 26.0039 191.807 26.2773 191.807 26.6146C191.807 26.9518 192.08 27.2252 192.418 27.2252Z" fill="white"/>
    <path d="M216.614 50.0195C216.277 50.0195 216.003 50.2937 216.003 50.6302C216.003 50.9667 216.277 51.2408 216.614 51.2408C216.95 51.2408 217.224 50.9667 217.224 50.6302C217.224 50.2937 216.95 50.0195 216.614 50.0195Z" fill="white"/>
    <path d="M222.446 21.1254C222.87 21.1254 223.219 20.7827 223.219 20.3527C223.219 19.9228 222.876 19.5801 222.446 19.5801C222.016 19.5801 221.673 19.9228 221.673 20.3527C221.673 20.7827 222.016 21.1254 222.446 21.1254Z" fill="white"/>
    <path d="M217.766 46.7363H217.224V48.4437H217.766V46.7363Z" fill="white"/>
    <path d="M219.528 46.5436L218.988 46.5908L219.137 48.2917L219.677 48.2444L219.528 46.5436Z" fill="white"/>
    <path d="M221.244 46.2096L220.71 46.3037L221.007 47.9851L221.541 47.891L221.244 46.2096Z" fill="white"/>
    <path d="M222.941 45.7279L222.417 45.8682L222.859 47.5173L223.383 47.377L222.941 45.7279Z" fill="white"/>
    <path d="M224.585 45.0939L224.076 45.2793L224.66 46.8837L225.169 46.6983L224.585 45.0939Z" fill="white"/>
    <path d="M226.167 44.309L225.675 44.5381L226.397 46.0855L226.888 45.8564L226.167 44.309Z" fill="white"/>
    <path d="M227.674 43.4106L227.205 43.6816L228.058 45.1603L228.528 44.8892L227.674 43.4106Z" fill="white"/>
    <path d="M229.098 42.356L228.654 42.667L229.633 44.0656L230.077 43.7546L229.098 42.356Z" fill="white"/>
    <path d="M230.425 41.2179L230.009 41.5664L231.107 42.8743L231.522 42.5259L230.425 41.2179Z" fill="white"/>
    <path d="M231.645 39.9419L231.261 40.3252L232.469 41.5325L232.852 41.1491L231.645 39.9419Z" fill="white"/>
    <path d="M232.751 38.5642L232.403 38.9795L233.711 40.077L234.059 39.6617L232.751 38.5642Z" fill="white"/>
    <path d="M233.743 37.1165L233.432 37.5605L234.831 38.5398L235.142 38.0958L233.743 37.1165Z" fill="white"/>
    <path d="M234.586 35.5666L234.315 36.0361L235.794 36.8898L236.065 36.4203L234.586 35.5666Z" fill="white"/>
    <path d="M235.296 33.9559L235.067 34.4473L236.615 35.1688L236.844 34.6775L235.296 33.9559Z" fill="white"/>
    <path d="M235.884 32.2993L235.698 32.8086L237.302 33.3939L237.488 32.8847L235.884 32.2993Z" fill="white"/>
    <path d="M236.283 30.575L236.143 31.0986L237.792 31.5402L237.933 31.0166L236.283 30.575Z" fill="white"/>
    <path d="M236.562 28.8392L236.468 29.373L238.15 29.6695L238.244 29.1356L236.562 28.8392Z" fill="white"/>
    <path d="M236.695 27.0859L236.648 27.626L238.349 27.7748L238.396 27.2347L236.695 27.0859Z" fill="white"/>
    <path d="M388.756 111.531L362.497 79.977V27.0617C362.497 26.4778 362.019 26 361.435 26H260.761V28.1234H360.374V80.3592C360.374 80.6034 360.459 80.8476 360.618 81.0387L386.877 112.592V215.408L359.227 246.866H3.25206L46.791 191.689H64.8669C65.4506 191.689 65.9283 191.212 65.9283 190.628V79.754C65.9283 79.1701 65.4506 78.6923 64.8669 78.6923H47.343V28.1234H104.362L116.664 40.694C116.865 40.8957 117.141 41.0125 117.417 41.0125H137.319C137.626 41.0125 137.934 40.8745 138.136 40.6303L148.654 28.1234H171.018V26H148.156C147.848 26 147.54 26.138 147.338 26.3822L136.82 38.8891H117.863L105.561 26.3185C105.36 26.1168 105.084 26 104.808 26H46.2816C45.6978 26 45.2202 26.4778 45.2202 27.0617V79.754C45.2202 80.3379 45.6978 80.8157 46.2816 80.8157H63.8054V189.577H46.2816C45.9525 189.577 45.6447 189.725 45.4431 189.98L0.227033 247.28C-0.0277057 247.599 -0.0701789 248.034 0.110261 248.405C0.2907 248.777 0.662219 249 1.06555 249H359.705C360.013 249 360.3 248.873 360.501 248.639L388.735 216.523C388.904 216.331 389 216.077 389 215.822V112.221C389 111.977 388.915 111.732 388.756 111.541V111.531Z" fill="white"/>
</svg>
