<svg width="376" height="223" viewBox="0 0 376 247" fill="white" xmlns="http://www.w3.org/2000/svg">
    <path d="M2.05629 25C1.47533 25 1 25.4756 1 26.057V213.969C1 214.223 1.09507 214.476 1.26407 214.667L29.3613 246.641C29.562 246.873 29.8472 247 30.1536 247H310.028C310.355 247 310.661 246.852 310.862 246.598L355.258 189.774H373.944C374.525 189.774 375 189.299 375 188.717V78.3252C375 77.7439 374.525 77.2682 373.944 77.2682H355.797V26.057C355.797 25.4756 355.321 25 354.74 25H296.497C296.211 25 295.937 25.1163 295.747 25.3171L283.504 37.8319H264.639L254.171 25.3805C253.97 25.1374 253.675 25 253.358 25H2.05629Z" fill="white" fill-opacity="0.1"/>
    <path d="M188.902 18.8517V16.2969H186.347C186.852 16.6521 187.325 17.0446 187.762 17.4808C188.179 17.9045 188.565 18.3656 188.902 18.8517Z" fill="white"/>
    <path d="M172.065 30.6104V33.134H174.577C174.097 32.7975 173.648 32.4236 173.231 32.0124C172.801 31.5824 172.414 31.1151 172.065 30.6166V30.6104Z" fill="white"/>
    <path d="M180.478 18.565V16.2969H172.065V20.5715L174.95 22.0109C175.954 19.9733 178.047 18.565 180.471 18.565H180.478Z" fill="white"/>
    <path d="M154.425 33.134H151.758V16.2973H154.425C154.549 16.2973 154.649 16.1976 154.649 16.073C154.649 15.9483 154.549 15.8486 154.425 15.8486H151.309V24.6845H148.299C148.287 24.0614 147.776 23.5566 147.153 23.5566C146.53 23.5566 146 24.0738 146 24.7094C146 25.345 146.517 25.8622 147.153 25.8622C147.72 25.8622 148.187 25.4509 148.281 24.9088H151.309V33.5827H154.425C154.549 33.5827 154.649 33.483 154.649 33.3584C154.649 33.2337 154.549 33.134 154.425 33.134Z" fill="white"/>
    <path d="M193.538 25.8747C193.139 25.7313 192.846 25.3762 192.79 24.94C192.79 24.8901 192.778 24.8465 192.778 24.7967C192.778 24.6907 192.797 24.591 192.821 24.4913C192.921 24.1237 193.195 23.8371 193.551 23.7124C193.619 23.6875 193.694 23.6688 193.769 23.6564C193.227 16.7958 187.481 11.3809 180.484 11.3809C173.486 11.3809 167.741 16.7958 167.199 23.6501C167.274 23.6564 167.348 23.675 167.417 23.6937C167.784 23.8121 168.071 24.105 168.171 24.4789C168.196 24.5786 168.214 24.6783 168.214 24.7842C168.214 24.8341 168.208 24.8839 168.202 24.9275C168.146 25.3699 167.841 25.7313 167.423 25.8684C167.355 25.8934 167.28 25.9058 167.205 25.9183C167.822 32.6979 173.536 38.0318 180.477 38.0318C187.419 38.0318 193.133 32.6978 193.75 25.9121C193.675 25.8996 193.6 25.8809 193.532 25.856L193.538 25.8747ZM171.268 20.1731L171.623 20.3476V15.8486H180.477V14.4466C181.923 14.4466 183.294 14.7457 184.546 15.2816C184.927 15.4436 185.288 15.6368 185.643 15.8424H189.357V19.5438C190.211 21.0019 190.709 22.6843 190.753 24.4851H185.219L180.49 19.7556L175.704 24.5412L172.072 24.5163H171.623L170.215 24.5038C170.258 22.9709 170.626 21.463 171.268 20.1669V20.1731ZM181.699 24.7219C181.699 25.3949 181.157 25.937 180.484 25.937C179.811 25.937 179.269 25.3949 179.269 24.7219C179.269 24.0489 179.811 23.5068 180.484 23.5068C181.157 23.5068 181.699 24.0489 181.699 24.7219ZM182.783 37.6205L182.285 34.8414C183.5 34.6233 184.64 34.1871 185.674 33.5827H180.477V35.0034C178.577 35.0034 176.795 34.4862 175.268 33.5827H171.617V29.9063C171.367 29.4825 171.137 29.0464 170.95 28.5852L171.617 28.3173V24.9338H172.065V28.1366L174.77 27.0524C174.502 26.3981 174.346 25.6815 174.321 24.94H175.748L180.477 29.6695L185.207 24.94H186.615C186.559 26.5663 185.88 28.0307 184.802 29.1024C183.93 29.9623 182.808 30.5668 181.549 30.7849C181.2 30.8472 180.839 30.8846 180.465 30.8846V33.134H186.36C186.84 32.7976 187.294 32.4237 187.712 32.0124L188.834 33.134H188.89V24.94H189.338V33.5827H189.282L189.712 34.0126C187.861 35.8571 185.456 37.1407 182.777 37.6205H182.783Z" fill="white"/>
    <path d="M180.172 24.7159C180.172 24.8841 180.309 25.0274 180.483 25.0274C180.658 25.0274 180.795 24.8903 180.795 24.7159C180.795 24.5414 180.658 24.4043 180.483 24.4043C180.309 24.4043 180.172 24.5414 180.172 24.7159Z" fill="white"/>
    <path d="M180.085 0.226562C168.75 0.226562 158.961 7.90965 156.288 18.9077C156.232 19.1508 156.375 19.3876 156.618 19.4499C156.861 19.5122 157.098 19.3626 157.16 19.1196C159.74 8.52654 169.168 1.12386 180.085 1.12386C193.021 1.12386 203.552 11.5861 203.67 24.4909H197.726C197.651 18.4965 194.498 13.2311 189.781 10.1965L192.367 6.2833L190.46 5.18038L188.398 9.39268C187.538 8.94403 186.634 8.56393 185.699 8.27106L187.189 3.82197L185.064 3.2487L184.16 7.8598C183.219 7.65417 182.254 7.52332 181.263 7.4797L181.549 2.78136H179.344L179.668 7.4797C178.677 7.52332 177.711 7.65417 176.776 7.8598L175.835 3.23624L173.711 3.80951L175.243 8.27729C174.309 8.57639 173.411 8.9565 172.552 9.39891L170.439 5.16169L168.532 6.26461L171.181 10.1965C170.358 10.7262 169.585 11.3119 168.869 11.9662L165.722 8.40815L164.164 9.96595L167.747 13.0878C167.093 13.8044 166.501 14.5771 165.971 15.3996L162.002 12.77L160.899 14.6768L165.174 16.7704C164.725 17.6303 164.351 18.5276 164.052 19.4561L159.541 17.9481L158.967 20.073L163.635 20.989C163.385 22.1231 163.248 23.2945 163.23 24.4972H158.999C158.849 23.3693 157.896 22.4969 156.73 22.4969C155.459 22.4969 154.431 23.5251 154.431 24.7962C154.431 26.0674 155.459 27.0956 156.73 27.0956C158.002 27.0956 158.936 26.1422 159.017 24.9396H163.23C163.242 26.111 163.373 27.2513 163.61 28.348L158.949 29.2952L159.516 31.42L164.015 29.8809C164.308 30.8156 164.682 31.7129 165.124 32.5728L160.862 34.6977L161.965 36.6044L165.909 33.9499C166.432 34.7724 167.018 35.5513 167.672 36.2679L164.114 39.4209L165.672 40.9787L168.794 37.3958C169.511 38.0563 170.277 38.6482 171.1 39.1841L168.483 43.1409L170.389 44.2439L172.471 39.988C173.324 40.4366 174.228 40.8229 175.156 41.122L173.654 45.6023L175.786 46.1755L176.689 41.5458C177.63 41.7576 178.59 41.8947 179.58 41.9446L179.294 46.6491H181.5L181.176 41.9508C182.166 41.9134 183.132 41.7888 184.073 41.5894L185.008 46.1942L187.133 45.621L185.612 41.1843C186.553 40.8915 187.45 40.5176 188.317 40.0752L190.41 44.275L192.317 43.1721L189.7 39.2838C190.529 38.7604 191.307 38.1684 192.03 37.5142L195.133 41.0223L196.691 39.4645L193.164 36.3925C193.825 35.676 194.423 34.9033 194.953 34.0808L198.853 36.6605L199.956 34.7537L195.763 32.7037C196.211 31.8438 196.598 30.9402 196.897 30.0055L201.321 31.4823L201.894 29.3513L197.321 28.454C197.576 27.3199 197.713 26.136 197.732 24.9271H203.676C203.558 37.832 193.021 48.2942 180.091 48.2942C169.193 48.2942 159.771 40.9102 157.179 30.342C157.123 30.099 156.88 29.9557 156.637 30.0118C156.394 30.0679 156.251 30.3109 156.307 30.5539C158.999 41.5271 168.775 49.1915 180.091 49.1915C193.594 49.1915 204.58 38.2058 204.58 24.7028C204.58 11.1997 193.588 0.226562 180.085 0.226562ZM196.436 28.292L196.049 29.7251C195.763 30.6287 195.395 31.4886 194.959 32.3173L194.274 33.5013C193.707 34.3923 193.052 35.2273 192.323 35.9937L191.744 36.5732C188.809 39.3648 184.839 41.0784 180.471 41.0784C171.511 41.0784 164.233 33.8751 164.114 24.9396H165.317H165.498H165.934C165.934 24.8897 165.922 24.8461 165.922 24.7962C165.922 24.6903 165.94 24.5906 165.965 24.4909H164.114C164.233 15.5554 171.511 8.35207 180.471 8.35207C189.432 8.35207 196.71 15.5554 196.828 24.4909H195.028C195.052 24.5906 195.071 24.6903 195.071 24.7962C195.071 24.8461 195.065 24.8959 195.059 24.9396H196.828C196.816 26.0923 196.679 27.2077 196.436 28.292Z" fill="white"/>
    <path d="M171.728 36.9414C171.654 37.0474 171.685 37.1845 171.784 37.253C171.822 37.2842 171.866 37.2904 171.909 37.2904C171.978 37.2904 172.046 37.2592 172.09 37.1969C172.165 37.091 172.133 36.9539 172.034 36.8854C171.934 36.8168 171.791 36.8417 171.722 36.9414H171.728Z" fill="white"/>
    <path d="M175.193 38.5364C175.081 38.4928 174.95 38.5551 174.907 38.6735C174.863 38.7857 174.919 38.9165 175.037 38.9601C175.062 38.9664 175.094 38.9726 175.118 38.9726C175.206 38.9726 175.293 38.9165 175.33 38.8293C175.374 38.7109 175.312 38.58 175.193 38.5364Z" fill="white"/>
    <path d="M169.055 34.5111C168.962 34.5921 168.949 34.7354 169.037 34.8226C169.08 34.8725 169.143 34.8974 169.205 34.8974C169.261 34.8974 169.311 34.8787 169.354 34.8413C169.448 34.7603 169.46 34.617 169.379 34.5298C169.292 34.4363 169.155 34.4238 169.062 34.5111H169.055Z" fill="white"/>
    <path d="M165.803 28.1116C165.684 28.1365 165.603 28.2611 165.635 28.3795C165.66 28.4855 165.753 28.5478 165.853 28.5478C165.871 28.5478 165.89 28.5478 165.909 28.5478C166.027 28.5166 166.102 28.3982 166.071 28.2736C166.046 28.1552 165.921 28.0804 165.803 28.1116Z" fill="white"/>
    <path d="M166.052 21.2011C166.077 21.0827 166.009 20.9581 165.884 20.927C165.765 20.902 165.641 20.9706 165.616 21.0952C165.585 21.2136 165.66 21.3382 165.784 21.3631C165.803 21.3631 165.815 21.3694 165.834 21.3694C165.94 21.3694 166.027 21.2946 166.052 21.2011Z" fill="white"/>
    <path d="M178.658 39.384C178.534 39.3715 178.428 39.4588 178.409 39.5834C178.396 39.7018 178.484 39.814 178.608 39.8326H178.633C178.745 39.8326 178.839 39.7454 178.858 39.6332C178.87 39.5086 178.783 39.4027 178.658 39.384Z" fill="white"/>
    <path d="M167.037 31.5078C166.925 31.5639 166.887 31.701 166.943 31.8131C166.981 31.8879 167.062 31.9315 167.143 31.9315C167.18 31.9315 167.217 31.9253 167.249 31.9066C167.361 31.8505 167.398 31.7134 167.342 31.6075C167.286 31.4954 167.149 31.458 167.043 31.514L167.037 31.5078Z" fill="white"/>
    <path d="M191.488 34.505C191.407 34.5984 191.413 34.7355 191.513 34.8228C191.55 34.8602 191.606 34.8788 191.662 34.8788C191.718 34.8788 191.781 34.8539 191.831 34.8041C191.912 34.7168 191.899 34.5735 191.812 34.4925C191.718 34.4053 191.581 34.4177 191.494 34.5112L191.488 34.505Z" fill="white"/>
    <path d="M185.68 38.5294C185.562 38.573 185.506 38.7039 185.549 38.816C185.581 38.9033 185.668 38.9656 185.755 38.9656C185.78 38.9656 185.811 38.9656 185.836 38.9469C185.954 38.9095 186.011 38.7786 185.967 38.6602C185.923 38.5418 185.792 38.4858 185.68 38.5294Z" fill="white"/>
    <path d="M182.216 39.3771C182.091 39.3958 182.004 39.5079 182.016 39.6263C182.029 39.7385 182.128 39.8257 182.241 39.8257H182.266C182.384 39.807 182.477 39.6949 182.459 39.5765C182.446 39.4581 182.334 39.3646 182.209 39.3771H182.216Z" fill="white"/>
    <path d="M188.827 36.873C188.721 36.9416 188.696 37.0787 188.771 37.1846C188.815 37.2469 188.883 37.2843 188.952 37.2843C188.995 37.2843 189.039 37.2718 189.083 37.2469C189.182 37.1721 189.207 37.035 189.139 36.9353C189.064 36.8294 188.927 36.8107 188.827 36.8793V36.873Z" fill="white"/>
    <path d="M175.056 10.9067C175.056 10.9067 175.113 10.9067 175.137 10.8942C175.25 10.8506 175.306 10.7197 175.262 10.6013C175.225 10.4892 175.094 10.4331 174.975 10.4767C174.857 10.5141 174.801 10.645 174.845 10.7634C174.882 10.8506 174.963 10.9067 175.056 10.9067Z" fill="white"/>
    <path d="M188.902 12.5464C188.971 12.5464 189.045 12.509 189.083 12.4467C189.158 12.347 189.126 12.2037 189.027 12.1352C188.927 12.0604 188.79 12.0915 188.715 12.1912C188.64 12.2972 188.672 12.428 188.771 12.5028C188.809 12.5277 188.852 12.5464 188.896 12.5464H188.902Z" fill="white"/>
    <path d="M185.618 10.8642C185.618 10.8642 185.674 10.8767 185.693 10.8767C185.786 10.8767 185.874 10.8206 185.905 10.7271C185.948 10.615 185.892 10.4841 185.774 10.4405C185.656 10.3969 185.525 10.453 185.487 10.5714C185.444 10.6898 185.5 10.8206 185.618 10.8642Z" fill="white"/>
    <path d="M191.619 14.939C191.675 14.939 191.725 14.9203 191.768 14.883C191.862 14.7957 191.868 14.6586 191.787 14.5652C191.706 14.4779 191.563 14.4655 191.475 14.5465C191.382 14.6337 191.369 14.7708 191.457 14.8643C191.494 14.9141 191.563 14.939 191.625 14.939H191.619Z" fill="white"/>
    <path d="M167.011 17.9614C167.043 17.9801 167.08 17.9864 167.117 17.9864C167.198 17.9864 167.273 17.9428 167.317 17.868C167.373 17.7558 167.335 17.6187 167.223 17.5627C167.117 17.5066 166.974 17.5502 166.924 17.6561C166.868 17.7683 166.906 17.9054 167.018 17.9614H167.011Z" fill="white"/>
    <path d="M171.859 12.602C171.903 12.602 171.947 12.5896 171.984 12.5584C172.09 12.4899 172.115 12.3466 172.04 12.2469C171.965 12.1409 171.828 12.1222 171.729 12.1908C171.629 12.2593 171.604 12.4026 171.672 12.5023C171.71 12.5647 171.785 12.602 171.853 12.602H171.859Z" fill="white"/>
    <path d="M182.154 10.0222C182.154 10.0222 182.172 10.0222 182.179 10.0222C182.291 10.0222 182.384 9.93494 182.397 9.82277C182.415 9.69815 182.328 9.58599 182.197 9.57353C182.079 9.56106 181.967 9.64207 181.948 9.77292C181.936 9.89132 182.017 10.0035 182.147 10.0222H182.154Z" fill="white"/>
    <path d="M169.161 15.0017C169.224 15.0017 169.286 14.9768 169.33 14.9269C169.411 14.8335 169.404 14.6902 169.311 14.6091C169.218 14.5281 169.074 14.5344 168.993 14.6278C168.912 14.7213 168.918 14.8646 169.012 14.9456C169.055 14.983 169.112 15.0017 169.161 15.0017Z" fill="white"/>
    <path d="M178.565 10.0347H178.59C178.708 10.0222 178.802 9.91003 178.783 9.7854C178.77 9.66701 178.658 9.57354 178.534 9.59223C178.409 9.6047 178.322 9.71686 178.334 9.84148C178.347 9.95988 178.446 10.0409 178.559 10.0409L178.565 10.0347Z" fill="white"/>
    <path d="M374.938 76.5037H356.694V25.0618C356.694 24.4778 356.216 24 355.632 24H297.077C296.79 24 296.514 24.1168 296.323 24.3185L284.015 36.8897H265.049L254.525 24.3822C254.323 24.138 254.026 24 253.707 24H232.996V26.1235H253.219L263.743 38.631C263.944 38.8752 264.242 39.0132 264.56 39.0132H284.472C284.758 39.0132 285.034 38.8964 285.226 38.6947L297.533 26.1235H354.581V77.5654C354.581 78.1494 355.059 78.6272 355.643 78.6272H373.887V187.393H355.643C355.313 187.393 355.005 187.542 354.804 187.797L310.171 244.876H29.7873L2.12387 213.417V26.1235H123.199V24H1.06194C0.477872 24 0 24.4778 0 25.0618V213.82C0 214.075 0.0955743 214.33 0.265484 214.521L28.513 246.639C28.7148 246.873 29.0015 247 29.3095 247H310.68C311.009 247 311.317 246.851 311.519 246.597L356.152 189.517H374.938C375.522 189.517 376 189.039 376 188.455V77.5654C376 76.9815 375.522 76.5037 374.938 76.5037Z" fill="white"/>
</svg>
